<svg width="19" height="20" viewBox="0 0 19 20" fill="none" xmlns="http://www.w3.org/2000/svg">
<path d="M12.5173 18.3686V15.8449C12.5503 15.4257 12.4937 15.0042 12.3511 14.6085C12.2086 14.2128 11.9835 13.8519 11.6908 13.5499C14.4518 13.2422 17.3535 12.1958 17.3535 7.39478C17.3533 6.16711 16.8811 4.98652 16.0346 4.09736C16.4354 3.02329 16.4071 1.83608 15.9554 0.782362C15.9554 0.782362 14.9178 0.474603 12.5173 2.08374C10.502 1.53753 8.37752 1.53753 6.36215 2.08374C3.96164 0.474603 2.92405 0.782362 2.92405 0.782362C2.47242 1.83608 2.44407 3.02329 2.84491 4.09736C1.99209 4.99312 1.51937 6.18437 1.52595 7.42115C1.52595 12.187 4.42767 13.2334 7.1887 13.5763C6.89941 13.8753 6.6763 14.2318 6.53389 14.6226C6.39148 15.0135 6.33297 15.43 6.36215 15.8449V18.3686" stroke="#213253" stroke-width="1.31897" stroke-linecap="round" stroke-linejoin="round"/>
</svg>
