<svg width="18" height="19" viewBox="0 0 18 19" fill="none" xmlns="http://www.w3.org/2000/svg">
<path d="M8.87955 12.9655C9.81238 12.9655 10.707 12.595 11.3666 11.9353C12.0262 11.2757 12.3968 10.3811 12.3968 9.44828C12.3968 8.51545 12.0262 7.62082 11.3666 6.96121C10.707 6.3016 9.81238 5.93104 8.87955 5.93104C7.94672 5.93104 7.05209 6.3016 6.39248 6.96121C5.73287 7.62082 5.3623 8.51545 5.3623 9.44828C5.3623 10.3811 5.73287 11.2757 6.39248 11.9353C7.05209 12.595 7.94672 12.9655 8.87955 12.9655V12.9655Z" stroke="#213253" stroke-width="1.31897" stroke-linecap="round" stroke-linejoin="round"/>
<path d="M0.96582 12.9655V5.93104C0.96582 4.765 1.42903 3.64672 2.25354 2.82221C3.07805 1.99769 4.19633 1.53448 5.36237 1.53448H12.3969C13.5629 1.53448 14.6812 1.99769 15.5057 2.82221C16.3302 3.64672 16.7934 4.765 16.7934 5.93104V12.9655C16.7934 14.1316 16.3302 15.2498 15.5057 16.0744C14.6812 16.8989 13.5629 17.3621 12.3969 17.3621H5.36237C4.19633 17.3621 3.07805 16.8989 2.25354 16.0744C1.42903 15.2498 0.96582 14.1316 0.96582 12.9655Z" stroke="#213253" stroke-width="1.31897"/>
<path d="M13.7158 4.62115L13.7249 4.61119" stroke="#213253" stroke-width="1.31897" stroke-linecap="round" stroke-linejoin="round"/>
</svg>
