<svg width="352" height="410" viewBox="0 0 352 410" fill="none" xmlns="http://www.w3.org/2000/svg">
<rect width="352" height="410" fill="#D02B32"/>
<g style="mix-blend-mode:multiply" clip-path="url(#clip0_1600_2276)">
<path d="M142.018 300.242C139.155 307.003 137.765 314.343 134.516 320.919C120.724 348.819 83.7164 357.193 56.5645 522.521L339.877 522.69C348.961 461.656 285.851 341.618 245.362 293.659C183.618 220.508 182.19 239.81 174.164 251.542C153.572 281.696 146.41 289.854 142.018 300.242Z" fill="#D6D4AF"/>
<path d="M340.903 523.848H339.9L55.2373 523.678L55.4534 522.335C76.593 393.445 103.521 359.987 121.334 337.875C126.235 331.786 130.465 326.522 133.475 320.433C135.171 316.758 136.585 312.96 137.704 309.072C138.669 305.984 139.664 302.843 140.946 299.81C143.979 292.656 148.37 286.435 157.153 274.024C161.367 268.058 166.608 260.626 173.261 250.909C173.948 249.906 174.596 248.817 175.229 247.76C177.683 243.677 180.215 239.455 185.262 239.046C192.448 238.467 205.329 244.449 246.289 292.926C267.706 318.295 293.615 361.423 312.308 402.814C334.914 452.889 345.125 495.531 341.058 522.876L340.903 523.848ZM57.9618 521.363L338.897 521.533C342.517 494.581 332.344 452.842 310.186 403.748C291.578 362.542 265.8 319.622 244.513 294.407C213.325 257.5 194.57 240.621 185.471 241.339C181.612 241.655 179.574 245.028 177.22 248.941C176.572 250.021 175.9 251.14 175.175 252.198C168.522 261.938 163.274 269.37 159.052 275.352C150.091 288.002 146.009 293.775 143.084 300.721C141.841 303.646 140.861 306.756 139.911 309.774C138.757 313.774 137.299 317.681 135.551 321.459C132.464 327.772 128.118 333.129 123.132 339.326C105.535 361.176 78.9624 394.186 57.9618 521.363Z" fill="#F2F2F2"/>
<path d="M100.156 522.937C100.105 522.937 100.054 522.927 100.007 522.907C99.9592 522.887 99.9163 522.858 99.8804 522.822C99.8444 522.785 99.8162 522.741 99.7972 522.694C99.7783 522.646 99.7691 522.595 99.7701 522.544C101.167 436.403 129.94 341.626 139.641 324.477C141.254 321.629 143.114 318.866 144.905 316.195C147.393 312.68 149.637 308.997 151.62 305.174C153.119 301.936 154.438 298.617 155.571 295.233C156.787 291.539 158.246 287.929 159.94 284.428C161.492 281.626 163.211 278.92 165.087 276.324C170.768 268.074 177.838 257.801 179.289 243.206C179.3 243.106 179.35 243.014 179.428 242.949C179.505 242.885 179.605 242.852 179.705 242.859C179.756 242.864 179.805 242.879 179.85 242.903C179.895 242.927 179.935 242.959 179.968 242.999C180 243.038 180.024 243.084 180.039 243.133C180.053 243.181 180.058 243.233 180.053 243.283C178.586 258.087 171.455 268.444 165.728 276.764C163.865 279.33 162.161 282.008 160.626 284.783C158.948 288.249 157.501 291.823 156.297 295.48C155.158 298.897 153.829 302.246 152.314 305.514C150.315 309.371 148.053 313.087 145.546 316.635C143.763 319.298 141.91 322.038 140.313 324.863C130.673 341.981 101.939 436.558 100.573 522.559C100.571 522.612 100.558 522.663 100.536 522.71C100.514 522.758 100.483 522.801 100.444 522.836C100.405 522.871 100.36 522.898 100.31 522.916C100.261 522.933 100.208 522.94 100.156 522.937Z" fill="#F2F2F2"/>
<path d="M153.109 522.999C153.014 522.999 152.922 522.964 152.852 522.899C152.782 522.835 152.739 522.747 152.731 522.652C145.368 453.962 147.946 385.441 151.442 327.456C152.43 311.109 155.772 307.559 161.314 301.678C163.533 299.385 165.62 296.968 167.565 294.438C173.593 286.52 184.83 260.255 183.966 240.412C183.962 240.31 183.997 240.211 184.065 240.135C184.132 240.058 184.227 240.011 184.329 240.003C184.431 240.001 184.531 240.038 184.607 240.107C184.683 240.176 184.73 240.271 184.738 240.374C185.61 260.441 174.264 286.936 168.183 294.94C166.219 297.487 164.114 299.922 161.877 302.234C156.474 307.991 153.187 311.495 152.214 327.533C148.718 385.488 146.14 453.992 153.495 522.598C153.506 522.7 153.477 522.802 153.413 522.883C153.35 522.964 153.258 523.016 153.156 523.03L153.109 522.999Z" fill="#F2F2F2"/>
<path d="M199.364 522.999C199.285 522.999 199.209 522.975 199.145 522.931C199.08 522.887 199.03 522.825 199.001 522.752C180.18 471.378 168.673 417.613 164.818 363.036C161.731 319.283 169.626 304.788 177.267 290.78C183.611 279.149 189.616 268.166 187.686 240.389C187.682 240.287 187.717 240.188 187.785 240.111C187.853 240.035 187.947 239.988 188.049 239.98C188.1 239.977 188.151 239.984 188.199 240.001C188.247 240.017 188.291 240.043 188.329 240.077C188.367 240.11 188.398 240.151 188.42 240.197C188.442 240.243 188.455 240.292 188.458 240.343C190.388 268.336 184.344 279.419 177.946 291.15C170.359 305.043 162.51 319.452 165.597 362.982C169.455 417.485 180.948 471.176 199.742 522.482C199.76 522.529 199.769 522.58 199.767 522.631C199.765 522.682 199.753 522.732 199.731 522.778C199.71 522.824 199.679 522.866 199.641 522.9C199.603 522.934 199.558 522.96 199.51 522.976C199.463 522.994 199.414 523.002 199.364 522.999Z" fill="#F2F2F2"/>
<path d="M226.16 522.999C226.074 522.998 225.99 522.967 225.923 522.913C225.856 522.858 225.809 522.783 225.79 522.698C214.56 474.862 202.45 426.524 189.7 379.058C173.238 317.585 179.227 306.509 185.563 294.763C190.549 285.501 195.705 276 190.65 241.323C190.642 241.273 190.644 241.222 190.656 241.172C190.669 241.123 190.69 241.077 190.72 241.036C190.751 240.995 190.788 240.961 190.832 240.934C190.875 240.908 190.924 240.891 190.974 240.883C191.076 240.87 191.179 240.897 191.262 240.959C191.344 241.021 191.398 241.113 191.414 241.215C196.5 276.139 191.29 285.794 186.243 295.125C179.976 306.702 174.056 317.685 190.449 378.858C203.168 426.331 215.309 474.677 226.538 522.536C226.562 522.635 226.545 522.74 226.491 522.826C226.438 522.913 226.352 522.975 226.253 522.999H226.16Z" fill="#F2F2F2"/>
<path d="M255.296 522.999C255.244 522.998 255.193 522.987 255.145 522.966C255.098 522.945 255.055 522.916 255.019 522.878C254.984 522.841 254.955 522.797 254.937 522.749C254.918 522.701 254.909 522.649 254.91 522.598C256.97 453.483 234.295 405.855 217.74 371.078C212.847 360.813 208.625 351.922 205.538 343.648C192.27 308.238 196.647 288.851 199.541 276.07C200.683 271.014 201.586 267.032 201.277 263.258C200.868 258.218 198.645 253.487 196.5 248.918C195.581 246.973 194.632 244.958 193.829 242.928C193.794 242.833 193.796 242.728 193.836 242.634C193.877 242.54 193.952 242.466 194.046 242.427C194.141 242.391 194.246 242.393 194.34 242.434C194.434 242.474 194.508 242.549 194.547 242.643C195.319 244.65 196.284 246.656 197.194 248.593C199.371 253.224 201.625 258.017 202.049 263.196C202.358 267.055 201.401 271.323 200.297 276.239C197.418 288.959 193.073 308.176 206.255 343.386C209.343 351.629 213.572 360.504 218.465 370.785C235.051 405.632 257.765 453.367 255.705 522.659C255.693 522.758 255.644 522.848 255.568 522.911C255.492 522.974 255.394 523.006 255.296 522.999Z" fill="#F2F2F2"/>
<path d="M278.326 523.045C278.226 523.043 278.13 523.003 278.058 522.933C277.986 522.863 277.944 522.768 277.94 522.667C276.459 480.419 261.385 447.857 246.806 416.367C234.581 389.964 223.035 365.019 219.399 335.367C219.013 332.218 218.72 328.984 218.435 325.858C217.501 315.501 216.536 304.788 211.982 295.403C211.334 294.068 210.601 292.717 209.883 291.413C207.645 287.322 205.33 283.085 205.252 278.369C205.295 275.562 205.777 272.778 206.68 270.119C208.224 264.716 209.706 259.638 203.485 249.882C203.454 249.84 203.433 249.792 203.421 249.74C203.41 249.689 203.409 249.636 203.419 249.585C203.429 249.533 203.449 249.484 203.478 249.441C203.507 249.398 203.545 249.361 203.589 249.332C203.633 249.304 203.683 249.285 203.734 249.276C203.786 249.268 203.839 249.27 203.89 249.282C203.941 249.294 203.989 249.317 204.03 249.349C204.072 249.38 204.107 249.42 204.133 249.466C210.547 259.499 208.957 265.017 207.421 270.304C206.541 272.894 206.07 275.604 206.024 278.339C206.101 282.861 208.34 287.006 210.562 291.027C211.28 292.331 212.021 293.69 212.677 295.04C217.308 304.557 218.265 315.339 219.206 325.766C219.484 328.891 219.778 332.118 220.163 335.251C223.783 364.78 235.306 389.671 247.508 416.02C262.119 447.579 277.223 480.21 278.712 522.621C278.714 522.672 278.706 522.722 278.689 522.77C278.671 522.817 278.645 522.861 278.61 522.898C278.576 522.936 278.534 522.966 278.488 522.987C278.442 523.008 278.392 523.02 278.342 523.022L278.326 523.045Z" fill="#F2F2F2"/>
<path d="M299.25 523.053C299.152 523.053 299.058 523.015 298.987 522.948C298.917 522.88 298.875 522.788 298.871 522.69C296.926 491.687 282.949 462.613 269.427 434.497C260.312 415.541 250.904 395.907 245.254 375.94C240.199 357.996 238.586 343.232 237.29 331.369C235.7 316.79 234.55 306.262 228.437 297.41C227.202 295.627 225.728 293.883 224.308 292.192C220.68 287.886 216.922 283.44 216.59 277.814C216.593 276.78 216.673 275.748 216.829 274.727C217.2 271.639 217.755 266.908 216.613 262.108C216.589 262.005 216.608 261.898 216.663 261.809C216.719 261.72 216.808 261.657 216.91 261.633C217.012 261.609 217.12 261.628 217.209 261.683C217.298 261.739 217.361 261.828 217.385 261.93C218.566 266.862 217.995 271.647 217.616 274.819C217.466 275.805 217.389 276.801 217.385 277.798C217.701 283.201 221.375 287.523 224.918 291.691C226.353 293.389 227.835 295.148 229.093 296.962C235.314 305.946 236.533 317.106 238.084 331.245C239.373 343.085 240.986 357.811 246.019 375.693C251.637 395.621 261.045 415.194 270.145 434.126C283.698 462.305 297.714 491.448 299.659 522.605C299.663 522.656 299.657 522.706 299.641 522.754C299.626 522.802 299.6 522.847 299.567 522.885C299.534 522.923 299.494 522.954 299.449 522.976C299.403 522.999 299.354 523.012 299.304 523.014L299.25 523.053Z" fill="#F2F2F2"/>
<path d="M321.608 523.069C321.51 523.069 321.415 523.031 321.343 522.964C321.271 522.896 321.228 522.804 321.222 522.706C315.364 433.648 286.893 354.546 238.879 293.944L238.3 293.219C232.411 285.794 226.322 278.115 223.636 269.502C223.619 269.453 223.613 269.402 223.617 269.352C223.621 269.301 223.635 269.252 223.659 269.207C223.683 269.162 223.716 269.122 223.756 269.091C223.796 269.059 223.841 269.036 223.891 269.023C223.939 269.008 223.989 269.002 224.04 269.007C224.09 269.011 224.139 269.026 224.184 269.049C224.228 269.073 224.268 269.106 224.299 269.145C224.331 269.184 224.355 269.229 224.369 269.278C226.993 277.767 233.036 285.37 238.879 292.74L239.458 293.466C264.194 324.647 283.813 360.921 297.914 401.448C311.096 439.321 319.192 480.095 321.994 522.659C321.997 522.71 321.99 522.761 321.974 522.809C321.957 522.857 321.931 522.901 321.898 522.939C321.864 522.977 321.823 523.008 321.777 523.03C321.732 523.053 321.682 523.066 321.631 523.069H321.608Z" fill="#F2F2F2"/>
<path d="M132.811 296.731C95.6874 322.076 76.2072 325.457 50.105 379.444C27.9157 425.351 14.9032 471.813 11.4224 522.667H95.0391C95.1858 475.719 102.757 432.467 112.134 368.377C116.989 335.135 125.896 338.709 134.663 320.047C136.902 315.277 138.152 310.075 140.622 305.429C145.43 296.36 169.464 272.558 181.905 241.3C166.176 246.695 159.778 278.339 132.811 296.731Z" fill="#B8BFA0"/>
<path d="M96.1968 523.848H10.1875L10.2724 522.613C13.6838 472.894 26.3721 425.907 49.063 378.974C70.3493 334.942 87.2208 324.361 112.767 308.346C118.841 304.541 125.116 300.628 132.163 295.797C146.163 286.234 154.406 273.26 161.684 261.838C168.129 251.696 173.693 242.944 181.535 240.273L183.912 239.502L182.978 241.817C174.264 263.713 159.901 281.951 150.393 294.06C146.294 299.27 143.053 303.384 141.64 306.054C140.376 308.589 139.29 311.209 138.391 313.895C137.619 316.103 136.763 318.387 135.736 320.564C133.322 325.674 130.23 330.435 126.544 334.719C121.141 341.433 116.426 347.237 113.308 368.57C111.98 377.669 110.684 386.321 109.449 394.68C101.854 445.657 96.328 482.495 96.2354 522.698L96.1968 523.848ZM12.665 521.533H93.8891C94.113 481.615 99.585 444.932 107.126 394.34C108.368 386.012 109.657 377.361 110.985 368.23C114.195 346.272 119.305 339.951 124.715 333.26C128.278 329.116 131.271 324.514 133.614 319.576C134.594 317.492 135.397 315.269 136.176 313.108C137.125 310.298 138.267 307.557 139.595 304.904C141.139 302.056 144.403 297.865 148.571 292.555C157.601 281.071 171.054 263.999 179.721 243.569C173.863 246.919 169.078 254.459 163.637 263.018C156.606 274.078 147.861 287.839 133.467 297.664C126.39 302.504 120.084 306.455 113.995 310.276C88.7876 326.074 72.1398 336.517 51.1469 379.946C28.7956 426.231 16.1844 472.547 12.665 521.51V521.533Z" fill="#F2F2F2"/>
<path d="M24.0642 523.061C24.0129 523.061 23.962 523.051 23.9147 523.031C23.8674 523.011 23.8245 522.982 23.7886 522.945C23.7526 522.908 23.7244 522.865 23.7054 522.817C23.6865 522.77 23.6773 522.719 23.6783 522.667C24.3575 463.277 66.8991 366.524 67.339 365.629C78.8388 341.657 85.3914 337.783 94.46 332.442C97.9228 330.461 101.272 328.289 104.493 325.935C108.545 322.933 112.983 319.074 117.707 314.991C124.985 308.686 133.228 301.539 141.393 296.468C151.751 290.016 159.631 276.664 167.982 262.509C172.288 255.185 176.742 247.667 181.612 241.099C181.639 241.052 181.676 241.012 181.72 240.98C181.764 240.948 181.814 240.926 181.867 240.915C181.92 240.904 181.975 240.905 182.028 240.916C182.081 240.928 182.131 240.95 182.174 240.983C182.218 241.015 182.254 241.056 182.281 241.103C182.308 241.15 182.324 241.202 182.329 241.256C182.335 241.31 182.328 241.365 182.311 241.416C182.294 241.468 182.266 241.515 182.229 241.555C177.405 248.1 172.967 255.617 168.669 262.895C160.271 277.119 152.337 290.548 141.825 297.101C133.714 302.149 125.494 309.28 118.239 315.562C113.516 319.661 109.047 323.527 104.98 326.545C101.736 328.919 98.3605 331.107 94.8691 333.098C85.6075 338.578 79.4331 342.197 68.049 365.961C67.6168 366.856 25.1447 463.439 24.4655 522.636C24.4711 522.691 24.4648 522.747 24.4469 522.8C24.4291 522.852 24.4001 522.9 24.362 522.94C24.3239 522.981 24.2776 523.012 24.2262 523.033C24.1748 523.054 24.1196 523.063 24.0642 523.061Z" fill="#F2F2F2"/>
<path d="M68.4658 348.186C68.3725 348.187 68.282 348.155 68.2111 348.094C68.1399 348.02 68.1001 347.922 68.1001 347.82C68.1001 347.718 68.1399 347.619 68.2111 347.546C69.6533 345.868 71.2531 344.333 72.9886 342.961C75.5853 341.067 78.3465 339.409 81.2391 338.006C83.6222 336.821 85.9292 335.488 88.1467 334.016C91.9054 331.408 95.0929 327.981 98.1801 324.662C100.341 322.347 102.579 319.946 105.003 317.824C110.058 313.401 116.387 309.566 123.086 305.475C132.517 299.748 142.273 293.829 148.131 286.18C148.903 285.177 150.446 282.815 152.53 279.558C159.314 269.085 171.949 249.589 181.689 241.014C181.726 240.978 181.771 240.95 181.82 240.932C181.868 240.913 181.92 240.905 181.972 240.907C182.024 240.909 182.075 240.922 182.122 240.944C182.169 240.967 182.211 240.999 182.246 241.038C182.28 241.077 182.306 241.123 182.323 241.172C182.339 241.222 182.345 241.274 182.341 241.326C182.336 241.378 182.321 241.428 182.297 241.474C182.272 241.52 182.239 241.561 182.198 241.593C172.535 250.083 159.947 269.532 153.179 279.975C151.056 283.255 149.528 285.617 148.741 286.643C142.798 294.415 132.981 300.373 123.487 306.131C116.811 310.183 110.513 314.003 105.512 318.38C103.146 320.526 100.889 322.79 98.7512 325.164C95.664 328.513 92.4147 331.971 88.5866 334.626C86.3423 336.116 84.0069 337.464 81.5941 338.662C78.7447 340.05 76.0226 341.684 73.4593 343.548C71.7771 344.892 70.2265 346.394 68.8286 348.032C68.7875 348.088 68.7322 348.132 68.6684 348.159C68.6045 348.186 68.5346 348.196 68.4658 348.186Z" fill="#F2F2F2"/>
<path d="M39.0141 523.061C38.9607 523.061 38.9079 523.05 38.8589 523.029C38.81 523.008 38.766 522.976 38.7297 522.937C38.6934 522.898 38.6657 522.852 38.6482 522.801C38.6307 522.751 38.6239 522.697 38.6282 522.644C49.6804 390.203 92.8317 343.262 105.775 332.01C107.488 330.528 109.286 329.092 111.023 327.703C113.88 325.508 116.618 323.164 119.227 320.68C121.311 318.627 123.256 316.357 125.139 314.158C127.022 311.958 128.998 309.681 131.074 307.605C132.07 306.625 133.737 305.166 135.852 303.329C147.969 292.764 176.333 268.027 181.511 241.238C181.532 241.137 181.591 241.049 181.676 240.991C181.761 240.933 181.866 240.911 181.967 240.929C182.016 240.94 182.064 240.959 182.106 240.988C182.148 241.016 182.184 241.053 182.212 241.095C182.24 241.137 182.259 241.184 182.269 241.234C182.278 241.284 182.278 241.335 182.268 241.385C177.035 268.436 148.532 293.296 136.361 303.901C134.254 305.737 132.595 307.181 131.615 308.146C129.538 310.199 127.601 312.468 125.726 314.652C123.85 316.836 121.867 319.144 119.767 321.228C117.135 323.724 114.379 326.086 111.509 328.305C109.773 329.686 107.982 331.114 106.284 332.588C93.3951 343.795 50.4059 390.558 39.4 522.714C39.3904 522.809 39.3455 522.898 39.2742 522.962C39.2028 523.026 39.1101 523.061 39.0141 523.061Z" fill="#F2F2F2"/>
<path d="M48.77 523.069C48.6696 523.067 48.5737 523.026 48.5019 522.956C48.4302 522.886 48.3881 522.791 48.3841 522.69C47.5274 497.954 53.0535 466.519 64.808 429.303C74.2703 399.318 85.06 374.073 90.2774 361.94C91.6667 358.691 92.5928 356.537 92.9015 355.642C94.777 350.293 116.727 324.554 140.622 304.788C140.702 304.724 140.804 304.693 140.907 304.703C141.009 304.714 141.104 304.763 141.17 304.842C141.234 304.921 141.264 305.022 141.254 305.123C141.244 305.225 141.194 305.318 141.116 305.382C118.163 324.361 95.5025 350.548 93.627 355.897C93.3029 356.823 92.3844 358.984 90.9875 362.241C61.9292 430.252 47.867 484.232 49.1945 522.698C49.1966 522.749 49.1884 522.801 49.1704 522.849C49.1524 522.897 49.125 522.941 49.0898 522.978C49.0546 523.016 49.0122 523.046 48.9653 523.066C48.9183 523.087 48.8677 523.098 48.8163 523.099L48.77 523.069Z" fill="#F2F2F2"/>
<path d="M100.519 449.261C100.436 449.26 100.355 449.233 100.288 449.183C100.222 449.133 100.173 449.063 100.148 448.983C93.2869 425.945 93.202 399.704 99.9707 375.091C106.67 350.679 119.767 328.861 136.855 313.648C136.927 313.578 137.024 313.538 137.125 313.538C137.226 313.538 137.323 313.578 137.395 313.648C137.431 313.684 137.46 313.727 137.48 313.774C137.499 313.821 137.509 313.871 137.509 313.922C137.509 313.973 137.499 314.024 137.48 314.071C137.46 314.118 137.431 314.161 137.395 314.196C102.332 345.4 86.9968 401.989 100.92 448.737C100.949 448.834 100.939 448.938 100.891 449.028C100.843 449.118 100.762 449.185 100.665 449.215L100.519 449.261Z" fill="#F2F2F2"/>
<path d="M155.147 334.773C136.222 340.677 111.517 359.748 71.5764 349.267C62.1681 346.797 53.1612 342.822 43.6063 340.993C7.06165 334.009 -31.7367 361.06 -42.9201 381.744C-49.0945 393.221 -48.0834 392.92 -71.9243 522.69H245.764C233.454 427.443 218.195 377.901 214.382 354.484C213.379 348.31 214.429 337.713 209.034 333.368C201.926 327.633 167.565 330.898 155.147 334.773Z" fill="#758C78"/>
<path d="M-73.3135 523.848L-73.0665 522.482C-68.4357 497.483 -64.7851 477.224 -61.8291 460.946C-49.2719 391.94 -49.0327 390.62 -43.9388 381.196C-37.9573 370.113 -24.8445 358.15 -9.7172 349.969C8.20399 340.276 27.252 336.687 43.8303 339.859C49.467 341.063 55.016 342.646 60.4394 344.598C64.1749 345.848 68.0339 347.137 71.8774 348.148C102.371 356.151 123.688 346.79 140.815 339.257C145.376 337.147 150.047 335.282 154.807 333.669C166.276 330.088 201.833 326.067 209.767 332.465C214.182 336.023 214.637 342.923 215.039 349.012C215.162 350.957 215.286 352.786 215.533 354.299C216.621 361.021 218.697 370.044 221.321 381.474C228.028 410.633 238.154 454.695 246.922 522.536L247.091 523.84L-73.3135 523.848ZM31.7284 341.047C0.0229187 341.047 -31.8678 363.715 -41.9012 382.3C-46.8253 391.4 -47.0646 392.712 -59.5446 461.363C-62.4543 477.339 -66.0586 497.159 -70.535 521.564H244.444C235.73 454.579 225.705 410.957 219.06 382.03C216.428 370.561 214.344 361.5 213.24 354.708C212.97 353.087 212.847 351.204 212.715 349.205C212.353 343.594 211.944 337.227 208.308 334.31C201.686 328.969 167.912 332.04 155.486 335.915C150.81 337.504 146.222 339.341 141.741 341.418C124.283 349.089 102.556 358.637 71.2832 350.425C67.3624 349.398 63.4648 348.109 59.7062 346.828C54.3782 344.927 48.9303 343.38 43.398 342.197C39.5529 341.448 35.6458 341.063 31.7284 341.047Z" fill="#F2F2F2"/>
<path d="M-42.982 382.231C-43.0516 382.232 -43.1201 382.213 -43.18 382.178C-43.2399 382.143 -43.2889 382.091 -43.3216 382.03C-43.346 381.985 -43.3614 381.936 -43.3669 381.886C-43.3724 381.835 -43.3678 381.784 -43.3535 381.735C-43.3391 381.687 -43.3153 381.641 -43.2833 381.602C-43.2514 381.562 -43.2119 381.529 -43.1672 381.505C14.602 349.668 18.762 350.293 41.7847 353.759C43.4595 354.006 45.2347 354.276 47.1873 354.531C95.6872 361.415 130.063 351.806 160.387 343.324C177.266 338.608 193.212 334.147 209.42 333.291C209.471 333.287 209.522 333.293 209.57 333.309C209.619 333.325 209.663 333.351 209.702 333.385C209.74 333.419 209.771 333.46 209.793 333.506C209.814 333.552 209.827 333.602 209.829 333.653C209.831 333.704 209.823 333.755 209.805 333.802C209.788 333.85 209.761 333.894 209.727 333.931C209.692 333.968 209.651 333.998 209.605 334.02C209.559 334.041 209.509 334.053 209.458 334.055C193.335 334.919 177.436 339.365 160.596 344.088C130.194 352.578 95.7644 362.226 47.0716 355.318C45.1652 355.048 43.3824 354.778 41.669 354.546C18.8546 351.119 14.7409 350.51 -42.789 382.215C-42.8512 382.236 -42.9174 382.241 -42.982 382.231Z" fill="#F2F2F2"/>
<path d="M-47.1265 392.086C-47.1929 392.086 -47.2582 392.069 -47.3163 392.037C-47.3743 392.004 -47.4232 391.958 -47.4584 391.901C-47.5101 391.813 -47.5253 391.708 -47.5008 391.608C-47.4763 391.509 -47.414 391.423 -47.3272 391.369L-38.7679 386.267C-11.3922 369.905 -4.8859 366.023 5.13206 362.974C20.568 358.289 36.9919 359.802 52.891 361.268C60.1614 361.94 67.671 362.635 74.9953 362.727C98.9211 363.036 122.723 356.923 145.746 351.019C167.55 345.423 190.094 339.643 212.677 339.334C212.779 339.334 212.877 339.375 212.95 339.447C213.022 339.519 213.063 339.617 213.063 339.72C213.063 339.822 213.022 339.92 212.95 339.993C212.877 340.065 212.779 340.106 212.677 340.106C190.186 340.414 167.688 346.188 145.924 351.768C122.862 357.687 98.9983 363.8 74.9799 363.499C67.6246 363.399 60.0919 362.727 52.8138 362.04C36.9919 360.582 20.6298 359.069 5.34816 363.715C-4.57718 366.733 -11.068 370.607 -38.382 386.923L-46.9335 392.032C-46.9917 392.068 -47.0584 392.086 -47.1265 392.086Z" fill="#F2F2F2"/>
<path d="M-49.581 402.228C-49.6466 402.228 -49.7111 402.212 -49.7681 402.179C-49.825 402.147 -49.8723 402.099 -49.9051 402.043C-49.9319 402 -49.9499 401.953 -49.9582 401.903C-49.9665 401.854 -49.9648 401.803 -49.9533 401.754C-49.9418 401.706 -49.9207 401.659 -49.8913 401.619C-49.8618 401.578 -49.8245 401.544 -49.7816 401.518C-33.8003 391.806 -16.9297 383.639 0.601433 377.129C26.0708 367.674 41.3061 368.709 58.9263 369.913C67.9812 370.677 77.0725 370.922 86.1554 370.646C103.907 369.928 122.306 365.127 140.104 360.481C164.508 354.114 189.739 347.53 214.104 351.142C214.204 351.158 214.294 351.212 214.355 351.292C214.415 351.373 214.442 351.475 214.428 351.575C214.413 351.677 214.358 351.768 214.276 351.83C214.194 351.892 214.091 351.92 213.989 351.907C189.777 348.318 164.593 354.878 140.297 361.23C122.461 365.861 104.023 370.7 86.1863 371.418C77.0832 371.701 67.9714 371.464 58.8954 370.708C41.3602 369.511 26.2175 368.477 0.887001 377.87C-16.5961 384.36 -33.4224 392.498 -49.3649 402.174C-49.4296 402.214 -49.5051 402.232 -49.581 402.228Z" fill="#F2F2F2"/>
<path d="M-51.155 410C-51.2236 410.001 -51.2913 409.983 -51.351 409.95C-51.4107 409.916 -51.4602 409.866 -51.4946 409.807C-51.5446 409.718 -51.5572 409.613 -51.5297 409.514C-51.5022 409.416 -51.4368 409.332 -51.3479 409.282C-28.4949 396.594 5.1941 382.485 16.7479 379.182C37.3936 373.27 59.305 373.648 80.5063 374.042C94.6997 374.304 109.372 374.582 123.596 372.961C135.458 371.611 147.452 368.902 159.045 366.277C177.46 362.117 196.508 357.788 215.278 358.93C215.329 358.933 215.378 358.946 215.424 358.968C215.47 358.99 215.511 359.021 215.544 359.059C215.578 359.097 215.604 359.141 215.62 359.189C215.637 359.237 215.644 359.288 215.641 359.339C215.639 359.389 215.627 359.439 215.605 359.484C215.584 359.53 215.554 359.571 215.516 359.605C215.479 359.639 215.435 359.665 215.388 359.681C215.34 359.698 215.29 359.705 215.239 359.702C196.562 358.598 177.576 362.882 159.214 367.034C147.599 369.658 135.582 372.367 123.712 373.725C109.441 375.354 94.7383 375.076 80.4909 374.814C59.359 374.42 37.5016 374.042 16.964 379.907C5.4488 383.218 -28.1554 397.288 -50.9543 409.954C-51.0162 409.986 -51.0852 410.002 -51.155 410Z" fill="#F2F2F2"/>
<path d="M-52.907 419.146C-52.9681 419.146 -53.0285 419.133 -53.0834 419.106C-53.1384 419.079 -53.1863 419.04 -53.2234 418.991C-53.2821 418.908 -53.306 418.805 -53.2901 418.704C-53.2743 418.603 -53.22 418.513 -53.1386 418.451C-34.4996 404.559 11.546 382.871 46.03 379.823C56.3026 378.92 66.7759 379.267 76.9019 379.606C81.8029 379.769 86.8736 379.938 91.8594 379.961C117.599 380.108 143.508 376.373 168.584 372.784C184.383 370.522 200.714 368.153 216.852 366.818C216.903 366.812 216.953 366.817 217.002 366.832C217.05 366.847 217.095 366.871 217.134 366.903C217.173 366.936 217.205 366.976 217.228 367.02C217.251 367.065 217.265 367.115 217.269 367.165C217.274 367.215 217.27 367.266 217.255 367.315C217.24 367.363 217.216 367.408 217.184 367.447C217.151 367.486 217.111 367.518 217.066 367.541C217.021 367.564 216.972 367.578 216.922 367.582C200.799 368.948 184.506 371.286 168.692 373.548C143.593 377.144 117.638 380.88 91.8594 380.733C86.8659 380.733 81.826 380.54 76.8711 380.378C66.7682 380.039 56.3103 379.691 46.0917 380.594C11.7466 383.628 -34.1137 405.292 -52.6986 419.069C-52.758 419.116 -52.8311 419.143 -52.907 419.146Z" fill="#F2F2F2"/>
<path d="M-54.976 430.229C-55.0358 430.228 -55.0947 430.214 -55.1482 430.187C-55.2016 430.16 -55.2483 430.122 -55.2847 430.074C-55.3441 429.992 -55.3693 429.889 -55.3549 429.789C-55.3405 429.688 -55.2877 429.597 -55.2075 429.534C-0.0315628 388.251 26.1479 387.294 83.5003 385.202C116.178 384.013 156.821 382.524 218.372 373.625C218.422 373.617 218.474 373.62 218.523 373.632C218.572 373.644 218.619 373.666 218.659 373.696C218.7 373.726 218.735 373.764 218.761 373.807C218.787 373.851 218.805 373.899 218.812 373.949C218.825 374.051 218.798 374.155 218.736 374.237C218.674 374.319 218.582 374.374 218.48 374.389C156.914 383.303 114.503 384.847 83.5312 385.974C26.3408 388.058 0.238567 389.015 -54.7444 430.152C-54.8104 430.203 -54.8922 430.231 -54.976 430.229Z" fill="#F2F2F2"/>
<path d="M-58.04 447.008C-58.0998 447.007 -58.1587 446.993 -58.2122 446.966C-58.2657 446.939 -58.3124 446.901 -58.3487 446.853C-58.4109 446.772 -58.4386 446.67 -58.4256 446.569C-58.4125 446.468 -58.3599 446.376 -58.2792 446.313C7.32372 396.308 54.5424 396.038 82.7517 395.876C85.8389 395.876 88.8026 395.837 91.4267 395.752C112.103 395.058 132.039 391.477 151.318 388.034C173.33 384.083 196.121 380 219.638 380.316C219.689 380.316 219.74 380.327 219.788 380.347C219.835 380.366 219.878 380.396 219.914 380.432C219.95 380.469 219.978 380.512 219.997 380.56C220.016 380.608 220.025 380.659 220.024 380.71C220.018 380.811 219.974 380.906 219.901 380.976C219.828 381.047 219.732 381.087 219.63 381.088C196.16 380.741 173.43 384.824 151.45 388.806C132.155 392.272 112.188 395.853 91.4576 396.524C88.818 396.609 85.8698 396.632 82.7517 396.648C54.6427 396.81 7.59384 397.08 -57.8084 446.931C-57.875 446.981 -57.9564 447.008 -58.04 447.008Z" fill="#F2F2F2"/>
<path d="M-56.4266 438.155C-56.4848 438.156 -56.5423 438.143 -56.5946 438.118C-56.6469 438.092 -56.6925 438.055 -56.7276 438.009C-56.7907 437.929 -56.8196 437.827 -56.808 437.726C-56.7965 437.624 -56.7454 437.532 -56.6659 437.468C-6.14387 397.157 28.2321 394.41 58.5947 391.978L61.296 391.762C87.6684 389.624 114.303 387.047 140.066 384.554C165.828 382.061 192.486 379.475 218.882 377.337C218.933 377.333 218.984 377.339 219.032 377.355C219.081 377.37 219.125 377.395 219.164 377.428C219.203 377.461 219.235 377.501 219.258 377.547C219.281 377.592 219.295 377.642 219.299 377.692C219.305 377.794 219.272 377.895 219.206 377.973C219.139 378.05 219.045 378.099 218.944 378.109C192.556 380.247 165.913 382.825 140.143 385.318C114.373 387.811 87.7378 390.396 61.3577 392.534L58.6564 392.75C28.425 395.166 -5.85058 397.906 -56.1873 438.07C-56.2535 438.128 -56.339 438.158 -56.4266 438.155Z" fill="#F2F2F2"/>
<path d="M-60.1466 458.554C-60.2027 458.554 -60.2582 458.541 -60.3089 458.517C-60.3596 458.493 -60.4044 458.458 -60.4399 458.415C-60.473 458.377 -60.4981 458.332 -60.5137 458.284C-60.5293 458.236 -60.5352 458.185 -60.5308 458.135C-60.5265 458.085 -60.5122 458.036 -60.4886 457.991C-60.465 457.946 -60.4327 457.907 -60.3936 457.875C-33.1028 435.292 0.578575 414.044 19.6111 407.345C35.6491 401.711 53.7324 400.738 76.6471 399.511C96.8991 398.423 122.106 397.065 152.947 391.878C158.659 390.921 164.462 389.825 170.073 388.791C186.505 385.704 203.485 382.493 220.395 382.207C220.497 382.207 220.595 382.248 220.668 382.32C220.74 382.393 220.781 382.491 220.781 382.593C220.782 382.644 220.773 382.694 220.754 382.74C220.736 382.787 220.708 382.83 220.673 382.866C220.637 382.902 220.595 382.93 220.549 382.95C220.503 382.969 220.453 382.979 220.402 382.979C203.562 383.265 186.613 386.46 170.236 389.547C164.617 390.612 158.805 391.701 153.086 392.634C122.214 397.829 96.9763 399.179 76.678 400.268C53.8482 401.495 35.8112 402.467 19.8736 408.063C0.887291 414.739 -32.6628 435.932 -59.8919 458.461C-59.9612 458.525 -60.0528 458.558 -60.1466 458.554Z" fill="#F2F2F2"/>
<path d="M-62.2766 470.139C-62.329 470.139 -62.3809 470.128 -62.4288 470.107C-62.4767 470.085 -62.5195 470.054 -62.5545 470.015C-62.5904 469.98 -62.6189 469.938 -62.6384 469.891C-62.6579 469.845 -62.668 469.795 -62.668 469.745C-62.668 469.695 -62.6579 469.645 -62.6384 469.598C-62.6189 469.552 -62.5904 469.51 -62.5545 469.475C-28.5953 437.214 18.0754 409.475 43.7223 406.311C50.2749 405.539 56.9741 405.801 63.4572 406.079C65.6877 406.172 67.9954 406.272 70.2568 406.326C88.2243 406.743 109.063 405.145 221.807 388.706C221.858 388.698 221.91 388.701 221.959 388.713C222.009 388.726 222.056 388.748 222.097 388.778C222.138 388.809 222.173 388.847 222.2 388.891C222.226 388.935 222.244 388.983 222.251 389.034C222.259 389.085 222.256 389.136 222.244 389.186C222.232 389.236 222.209 389.283 222.179 389.324C222.149 389.365 222.11 389.4 222.066 389.426C222.022 389.453 221.974 389.47 221.923 389.478C109.109 405.917 88.2783 407.515 70.28 407.098C67.9646 407.044 65.6954 406.944 63.465 406.851C57.0127 406.573 50.3444 406.28 43.8535 407.082C18.3841 410.224 -28.1399 437.877 -61.9833 470.03C-62.0225 470.067 -62.0686 470.096 -62.119 470.114C-62.1694 470.133 -62.223 470.141 -62.2766 470.139Z" fill="#F2F2F2"/>
<path d="M124.9 522.69L436.159 522.49C440.936 488.855 407.602 422.796 387.034 399.048C371.945 381.644 352.936 368.114 336.543 351.922C318.598 334.171 298.2 306.386 272.715 298.29C262.682 295.102 250.41 303.785 241.696 308.771C166.577 351.791 139.996 437.947 124.9 522.69Z" fill="#B8BFA0"/>
<path d="M123.518 523.848L123.757 522.49C133.019 470.725 144.411 431.672 159.746 399.588C179.759 357.703 206.378 327.664 241.125 307.744C242.252 307.096 243.44 306.386 244.675 305.653C253.211 300.566 263.823 294.23 273.062 297.163C293.036 303.507 309.877 321.721 324.726 337.798C329.133 342.56 333.293 347.06 337.353 351.081C343.952 357.595 351.099 363.785 358.014 369.781C368.263 378.657 378.852 387.834 387.906 398.269C398.757 410.779 412.202 433.671 422.166 456.578C429.112 472.446 440.218 502.114 437.301 522.629L437.162 523.624L123.518 523.848ZM268.092 298.76C260.79 298.76 252.656 303.623 245.864 307.659C244.613 308.431 243.417 309.126 242.275 309.774C165.89 353.52 140.706 441.188 126.281 521.533L435.14 521.332C439.099 487.635 405.958 422.665 386.138 399.812C377.216 389.478 366.689 380.371 356.501 371.549C349.555 365.537 342.377 359.316 335.732 352.748C331.626 348.696 327.451 344.181 323.028 339.396C308.364 323.527 291.755 305.552 272.36 299.393C270.979 298.961 269.538 298.748 268.092 298.76Z" fill="#F2F2F2"/>
<path d="M396.172 522.899C396.109 522.899 396.048 522.883 395.992 522.854C395.937 522.824 395.89 522.781 395.856 522.729C378.876 496.665 368.449 466.943 358.4 438.201C349.324 412.261 339.059 382.871 337.646 353.396C337.646 353.294 337.687 353.196 337.759 353.123C337.832 353.051 337.93 353.01 338.032 353.01C338.135 353.01 338.233 353.051 338.305 353.123C338.378 353.196 338.418 353.294 338.418 353.396C339.808 382.725 350.072 412.053 359.126 437.978C369.159 466.673 379.547 496.349 396.496 522.335C396.552 522.42 396.572 522.524 396.552 522.624C396.532 522.724 396.473 522.811 396.388 522.868C396.321 522.9 396.246 522.91 396.172 522.899Z" fill="#F2F2F2"/>
<path d="M386.216 522.906C386.149 522.908 386.083 522.891 386.025 522.859C385.966 522.826 385.918 522.779 385.884 522.721C368.626 493.756 351.539 447.996 333.625 382.825C330.167 370.245 326.254 355.989 326.548 341.919C326.55 341.818 326.591 341.722 326.663 341.652C326.736 341.581 326.833 341.541 326.934 341.541C327.036 341.545 327.133 341.588 327.205 341.661C327.277 341.735 327.318 341.832 327.32 341.935C327.026 355.92 330.932 370.121 334.374 382.64C352.264 447.749 369.329 493.447 386.547 522.335C386.598 522.423 386.612 522.528 386.586 522.626C386.56 522.725 386.496 522.809 386.409 522.86C386.35 522.893 386.283 522.909 386.216 522.906Z" fill="#F2F2F2"/>
<path d="M378.42 522.914C378.353 522.914 378.287 522.896 378.229 522.862C378.171 522.828 378.122 522.78 378.089 522.721C360.337 491.278 347.842 456.532 336.952 423.676C327.397 394.811 318.066 364.016 318.112 332.828C318.112 332.725 318.153 332.627 318.225 332.555C318.297 332.482 318.396 332.442 318.498 332.442C318.6 332.444 318.697 332.485 318.769 332.557C318.841 332.629 318.882 332.726 318.884 332.828C318.837 363.9 328.145 394.626 337.685 423.429C348.559 456.254 361.063 490.954 378.76 522.335C378.81 522.424 378.823 522.53 378.795 522.628C378.768 522.726 378.702 522.81 378.613 522.86C378.556 522.897 378.489 522.916 378.42 522.914Z" fill="#F2F2F2"/>
<path d="M364.281 522.922C364.209 522.922 364.138 522.902 364.076 522.864C364.015 522.825 363.966 522.771 363.934 522.706C349.092 491.988 339.059 458.863 329.365 426.825C318.22 389.949 314.052 358.691 316.677 331.269C316.681 331.218 316.696 331.169 316.719 331.124C316.743 331.079 316.775 331.039 316.814 331.006C316.853 330.973 316.898 330.949 316.947 330.934C316.995 330.918 317.047 330.913 317.097 330.917C317.148 330.922 317.197 330.937 317.242 330.96C317.287 330.984 317.327 331.016 317.36 331.055C317.392 331.094 317.417 331.139 317.432 331.188C317.447 331.236 317.453 331.287 317.448 331.338C314.809 358.668 318.938 389.825 330.083 426.601C339.831 458.608 349.864 491.71 364.628 522.366C364.651 522.412 364.664 522.461 364.667 522.512C364.67 522.563 364.664 522.614 364.647 522.662C364.631 522.71 364.605 522.754 364.571 522.792C364.537 522.83 364.497 522.861 364.451 522.883C364.399 522.911 364.34 522.925 364.281 522.922Z" fill="#F2F2F2"/>
<path d="M362.799 522.922C362.723 522.924 362.647 522.902 362.584 522.859C362.52 522.816 362.471 522.754 362.444 522.683C359.071 514.447 355.058 505.217 350.798 495.438C328.176 443.504 297.196 372.29 307.284 321.613C307.304 321.515 307.362 321.428 307.446 321.372C307.53 321.315 307.632 321.294 307.731 321.312C307.832 321.333 307.921 321.392 307.978 321.477C308.036 321.562 308.058 321.667 308.04 321.768C298.007 372.205 328.925 443.257 351.508 495.129C355.768 504.908 359.789 514.146 363.162 522.389C363.2 522.486 363.199 522.593 363.158 522.688C363.118 522.784 363.042 522.859 362.946 522.899C362.899 522.915 362.849 522.922 362.799 522.922Z" fill="#F2F2F2"/>
<path d="M348.204 522.93C348.132 522.932 348.06 522.912 347.998 522.874C347.936 522.835 347.887 522.78 347.857 522.714C327.52 479.554 300.005 401.286 297.258 386.769C294.171 370.183 294.657 338.292 300.909 315.678C300.936 315.576 301.003 315.489 301.095 315.436C301.187 315.383 301.296 315.369 301.399 315.397C301.501 315.424 301.588 315.491 301.641 315.583C301.694 315.675 301.708 315.784 301.68 315.887C295.46 338.392 294.95 370.129 298.045 386.63C300.762 401.116 328.277 479.246 348.583 522.382C348.605 522.428 348.617 522.478 348.62 522.529C348.623 522.58 348.615 522.631 348.598 522.679C348.581 522.727 348.554 522.771 348.52 522.809C348.485 522.847 348.444 522.877 348.397 522.899C348.337 522.925 348.27 522.935 348.204 522.93Z" fill="#F2F2F2"/>
<path d="M344.562 522.937C344.487 522.937 344.414 522.914 344.351 522.873C344.288 522.832 344.238 522.774 344.207 522.706C330.785 492.034 318.383 460.321 306.389 429.658C293.893 397.713 283.428 360.883 291.4 308.138C291.418 308.037 291.473 307.947 291.555 307.887C291.637 307.826 291.739 307.8 291.84 307.814C291.941 307.831 292.031 307.886 292.091 307.968C292.152 308.05 292.178 308.153 292.164 308.254C284.223 360.821 294.65 397.535 307.107 429.372C319.1 460.036 331.503 491.733 344.925 522.397C344.945 522.444 344.956 522.494 344.957 522.545C344.958 522.596 344.949 522.646 344.93 522.693C344.912 522.741 344.884 522.784 344.848 522.821C344.813 522.857 344.771 522.886 344.724 522.906C344.672 522.926 344.617 522.936 344.562 522.937Z" fill="#F2F2F2"/>
<path d="M332.992 522.945C332.92 522.945 332.849 522.925 332.788 522.887C332.726 522.849 332.677 522.794 332.645 522.729C302.39 460.121 285.094 408.117 278.218 359.061C274.359 331.577 278.256 324.438 286.785 308.778L288.328 305.907C288.376 305.818 288.457 305.751 288.554 305.72C288.65 305.69 288.755 305.699 288.845 305.745C288.891 305.769 288.931 305.801 288.964 305.84C288.996 305.88 289.021 305.925 289.036 305.974C289.051 306.023 289.056 306.074 289.051 306.125C289.047 306.176 289.032 306.225 289.007 306.27C288.467 307.266 287.95 308.223 287.464 309.149C278.766 325.117 275.169 331.724 278.974 358.953C285.843 407.924 303.108 459.858 333.332 522.389C333.354 522.435 333.367 522.485 333.369 522.536C333.372 522.587 333.365 522.639 333.347 522.687C333.33 522.735 333.303 522.779 333.269 522.817C333.235 522.854 333.193 522.885 333.147 522.906C333.098 522.929 333.046 522.942 332.992 522.945Z" fill="#F2F2F2"/>
<path d="M325.938 522.945C325.863 522.946 325.789 522.925 325.725 522.884C325.662 522.842 325.612 522.783 325.583 522.713C315.974 500.2 307.299 476.969 299.805 453.676C290.621 425.119 286.492 416.884 283.173 410.278C280.841 405.804 278.852 401.16 277.222 396.385C270.816 378.063 266.216 327.934 280.618 301.454C280.667 301.364 280.75 301.297 280.849 301.268C280.947 301.239 281.053 301.251 281.143 301.3C281.233 301.349 281.3 301.432 281.329 301.53C281.358 301.629 281.346 301.734 281.297 301.824C267.004 328.143 271.588 377.955 277.948 396.169C279.569 400.901 281.545 405.504 283.86 409.938C287.194 416.568 291.338 424.818 300.538 453.444C308.009 476.691 316.677 499.922 326.27 522.412C326.309 522.507 326.308 522.612 326.269 522.706C326.23 522.8 326.156 522.875 326.062 522.914C326.023 522.932 325.981 522.943 325.938 522.945Z" fill="#F2F2F2"/>
<path d="M320.883 522.953C320.805 522.952 320.729 522.928 320.664 522.885C320.599 522.841 320.549 522.778 320.52 522.706C315.396 509.4 309.406 495.824 303.07 481.445C277.655 423.815 248.851 358.505 274.915 299.015C274.931 298.963 274.958 298.916 274.994 298.875C275.03 298.834 275.074 298.802 275.123 298.78C275.173 298.757 275.226 298.745 275.281 298.745C275.335 298.745 275.388 298.756 275.438 298.778C275.488 298.799 275.532 298.832 275.569 298.872C275.605 298.912 275.633 298.959 275.65 299.011C275.666 299.062 275.672 299.117 275.667 299.171C275.661 299.225 275.644 299.277 275.617 299.324C249.692 358.498 278.426 423.653 303.772 481.137C310.116 495.523 316.121 509.107 321.246 522.428C321.264 522.475 321.273 522.525 321.272 522.576C321.271 522.626 321.259 522.676 321.238 522.722C321.217 522.768 321.187 522.81 321.15 522.844C321.113 522.878 321.07 522.905 321.022 522.922C320.979 522.943 320.931 522.954 320.883 522.953Z" fill="#F2F2F2"/>
<path d="M306.142 522.999C306.068 522.998 305.996 522.977 305.933 522.937C305.87 522.898 305.82 522.842 305.787 522.775C289.297 486.514 275.604 449.044 264.828 410.695C254.022 372.213 246.559 334.672 273.479 298.452C273.542 298.372 273.633 298.319 273.734 298.304C273.835 298.29 273.937 298.315 274.02 298.375C274.102 298.436 274.156 298.527 274.17 298.629C274.185 298.73 274.158 298.833 274.097 298.915C247.385 334.85 254.802 372.197 265.569 410.486C276.33 448.796 290.005 486.226 306.474 522.451C306.496 522.498 306.508 522.548 306.51 522.599C306.512 522.651 306.504 522.702 306.486 522.75C306.468 522.798 306.441 522.842 306.406 522.88C306.37 522.917 306.328 522.947 306.281 522.968C306.237 522.988 306.19 522.998 306.142 522.999Z" fill="#F2F2F2"/>
<path d="M293.685 522.999C293.606 522.997 293.53 522.972 293.465 522.926C293.401 522.881 293.351 522.818 293.322 522.744C289.72 512.768 286.291 503.313 283.034 494.381C245.671 391.616 231.64 353.203 266.425 297.448C266.452 297.405 266.487 297.368 266.528 297.338C266.569 297.309 266.616 297.288 266.666 297.276C266.715 297.265 266.766 297.263 266.816 297.272C266.866 297.28 266.914 297.298 266.957 297.325C267 297.352 267.038 297.387 267.067 297.428C267.097 297.469 267.118 297.516 267.129 297.566C267.141 297.615 267.142 297.666 267.134 297.716C267.126 297.766 267.108 297.814 267.081 297.857C232.496 353.265 246.443 391.608 283.759 494.087C287.016 503.03 290.446 512.485 294.048 522.451C294.066 522.499 294.074 522.549 294.072 522.6C294.071 522.651 294.059 522.701 294.037 522.747C294.015 522.794 293.985 522.835 293.947 522.869C293.909 522.903 293.864 522.929 293.816 522.945C293.776 522.971 293.732 522.99 293.685 522.999Z" fill="#F2F2F2"/>
<path d="M278.087 522.999C278.007 523.001 277.928 522.978 277.863 522.932C277.797 522.886 277.749 522.82 277.724 522.744C265.267 488.376 250.201 443.473 244.22 400.978C237.536 353.203 244.127 318.472 263.885 297.734C263.921 297.698 263.964 297.669 264.011 297.649C264.058 297.63 264.108 297.62 264.159 297.62C264.21 297.62 264.261 297.63 264.308 297.649C264.355 297.669 264.398 297.698 264.433 297.734C264.469 297.769 264.498 297.811 264.517 297.858C264.537 297.904 264.547 297.954 264.547 298.004C264.547 298.054 264.537 298.104 264.517 298.151C264.498 298.197 264.469 298.239 264.433 298.274C244.853 318.82 238.316 353.334 244.999 400.854C250.966 443.303 266.016 488.129 278.465 522.466C278.499 522.563 278.495 522.669 278.451 522.761C278.408 522.854 278.329 522.926 278.233 522.96C278.187 522.983 278.137 522.996 278.087 522.999Z" fill="#F2F2F2"/>
<path d="M267.791 522.999C267.713 523 267.637 522.978 267.572 522.935C267.508 522.893 267.457 522.832 267.428 522.76C259.563 503.704 254.161 486.555 248.457 467.731C239.859 439.375 230.706 406.619 230.945 376.766C231.192 345.122 241.943 319.244 263.801 297.749C263.835 297.709 263.878 297.677 263.926 297.654C263.974 297.631 264.027 297.619 264.08 297.617C264.133 297.615 264.186 297.625 264.235 297.644C264.284 297.664 264.329 297.694 264.367 297.732C264.404 297.77 264.433 297.815 264.452 297.864C264.471 297.914 264.48 297.967 264.477 298.02C264.475 298.073 264.461 298.125 264.438 298.173C264.414 298.221 264.381 298.263 264.341 298.297C217.006 344.845 229.479 402.49 249.198 467.507C254.902 486.308 260.258 503.419 268.146 522.451C268.184 522.545 268.184 522.651 268.145 522.745C268.106 522.839 268.031 522.914 267.937 522.953C267.893 522.979 267.843 522.995 267.791 522.999Z" fill="#F2F2F2"/>
<path d="M253.683 522.999C253.601 523 253.521 522.975 253.455 522.928C253.388 522.881 253.338 522.814 253.312 522.737C224.308 435.184 214.799 376.18 225.134 347.353C228.885 336.872 243.803 314.081 255.844 300.466C255.879 300.43 255.922 300.401 255.969 300.382C256.016 300.362 256.067 300.352 256.118 300.352C256.168 300.352 256.219 300.362 256.266 300.382C256.313 300.401 256.356 300.43 256.392 300.466C256.462 300.538 256.502 300.635 256.502 300.736C256.502 300.837 256.462 300.934 256.392 301.006C244.405 314.567 229.548 337.235 225.828 347.646C215.579 376.303 225.056 435.137 254.014 522.521C254.046 522.617 254.039 522.722 253.994 522.813C253.95 522.904 253.871 522.973 253.775 523.007C253.744 523.008 253.713 523.006 253.683 522.999Z" fill="#F2F2F2"/>
<path d="M227.148 522.999C227.065 523 226.985 522.974 226.918 522.925C226.851 522.876 226.802 522.808 226.777 522.729C215.903 487.898 210.014 449.593 210.214 414.87C210.438 374.242 218.944 338.848 234.804 312.522C234.858 312.435 234.944 312.372 235.044 312.348C235.143 312.323 235.248 312.339 235.336 312.39C235.38 312.416 235.418 312.45 235.448 312.49C235.478 312.53 235.5 312.576 235.513 312.625C235.525 312.674 235.527 312.725 235.519 312.775C235.512 312.825 235.494 312.872 235.468 312.915C199.78 372.151 208.879 462.837 227.518 522.497C227.547 522.595 227.537 522.699 227.489 522.789C227.441 522.878 227.36 522.946 227.263 522.976L227.148 522.999Z" fill="#F2F2F2"/>
<path d="M200.66 522.999C200.572 522.999 200.486 522.97 200.418 522.915C200.349 522.86 200.301 522.784 200.282 522.698C184.074 448.791 190.364 380.116 218.481 324.106C218.527 324.014 218.607 323.944 218.705 323.912C218.803 323.879 218.909 323.887 219.002 323.933C219.094 323.979 219.164 324.059 219.196 324.157C219.229 324.255 219.221 324.362 219.175 324.454C191.136 380.301 184.861 448.798 201.038 522.528C201.049 522.578 201.051 522.629 201.042 522.68C201.033 522.73 201.015 522.778 200.988 522.821C200.96 522.864 200.925 522.901 200.883 522.93C200.841 522.96 200.794 522.98 200.745 522.991L200.66 522.999Z" fill="#F2F2F2"/>
<path d="M246.142 501.026C286.422 418.729 288.12 377.029 353.152 369.542C375.449 366.972 376.468 370.16 386.393 372.714C392.22 374.212 398.372 374.258 404.145 376.064C415.722 379.684 424.482 390.882 425.246 402.977C426.249 419.03 424.474 409.691 462.77 436.774C492.029 457.473 489.012 466.619 504.656 483.367C517.005 496.565 531.893 498.031 531.97 522.729C531.97 522.729 239.203 522.659 239.049 522.644C239.018 522.605 242.885 507.687 246.142 501.026Z" fill="#758C78"/>
<path d="M533.097 523.848H531.939C239.111 523.771 238.98 523.771 238.903 523.771L237.56 523.64L237.899 522.328C238.054 521.71 241.828 507.208 245.1 500.524C253.59 483.213 260.359 467.646 266.348 453.908C288.73 402.629 301.017 374.412 353.021 368.4C370.672 366.362 375.318 367.929 381.191 369.943C382.835 370.499 384.541 371.07 386.679 371.626C389.301 372.233 391.955 372.695 394.628 373.008C397.964 373.388 401.263 374.041 404.492 374.96C410.499 376.927 415.788 380.633 419.687 385.608C423.586 390.583 425.921 396.604 426.396 402.907L426.488 404.35C426.743 408.618 426.874 410.764 427.963 412.331C429.051 413.897 431.42 415.341 436.074 418.088C441.631 421.376 450.028 426.339 463.442 435.84C482.421 449.269 487.877 457.797 493.658 466.835C497.074 472.469 501.043 477.748 505.505 482.595C508.76 485.928 512.307 488.963 516.102 491.664C525.202 498.533 533.082 504.46 533.128 522.706L533.097 523.848ZM240.523 521.455C262.134 521.455 511.379 521.533 530.766 521.533C530.396 505.325 523.434 500.107 514.674 493.501C510.773 490.719 507.129 487.593 503.784 484.162C499.222 479.214 495.168 473.82 491.682 468.062C486.025 459.233 480.684 450.882 462.068 437.715C448.739 428.284 440.388 423.352 434.87 420.087C424.914 414.206 424.713 413.913 424.142 404.489L424.057 403.054C423.332 391.515 414.796 380.625 403.767 377.168C400.658 376.291 397.483 375.666 394.273 375.3C391.524 374.963 388.795 374.474 386.1 373.833C383.885 373.262 382.133 372.676 380.451 372.105C374.631 370.136 370.417 368.716 353.283 370.692C302.607 376.527 291.2 402.691 268.47 454.818C262.473 468.572 255.674 484.147 247.184 501.528C244.598 506.791 241.581 517.596 240.523 521.455Z" fill="#F2F2F2"/>
<path d="M329.134 522.999C329.09 523.006 329.046 523.006 329.002 522.999C328.955 522.983 328.911 522.957 328.874 522.924C328.837 522.89 328.806 522.85 328.785 522.804C328.763 522.759 328.751 522.71 328.749 522.66C328.746 522.61 328.754 522.56 328.771 522.513C338.76 493.751 342.65 463.224 340.193 432.876C338.071 407.26 327.737 393.375 306.69 387.857C306.64 387.844 306.594 387.822 306.554 387.792C306.513 387.761 306.479 387.723 306.453 387.679C306.427 387.636 306.41 387.587 306.403 387.537C306.396 387.487 306.399 387.435 306.412 387.386C306.424 387.337 306.447 387.291 306.477 387.251C306.508 387.21 306.546 387.177 306.59 387.152C306.634 387.126 306.682 387.11 306.733 387.104C306.783 387.098 306.834 387.102 306.883 387.116C328.292 392.727 338.804 406.82 340.965 432.807C343.426 463.265 339.52 493.901 329.496 522.768C329.466 522.838 329.415 522.897 329.35 522.939C329.286 522.98 329.21 523.001 329.134 522.999Z" fill="#F2F2F2"/>
<path d="M367.152 523.038C367.073 523.038 366.996 523.013 366.931 522.968C366.866 522.922 366.817 522.858 366.79 522.783C355.791 492.212 342.98 452.202 343.057 440.038C343.172 436.604 343.526 433.182 344.114 429.797C346.291 415.071 348.745 398.377 320.312 378.696C320.241 378.634 320.195 378.548 320.183 378.454C320.171 378.36 320.194 378.265 320.247 378.187C320.3 378.109 320.38 378.054 320.472 378.031C320.563 378.008 320.66 378.019 320.744 378.063C349.594 398.014 347.086 414.955 344.878 429.905C344.298 433.257 343.947 436.646 343.829 440.046C343.751 451.33 355.676 489.603 367.523 522.521C367.555 522.618 367.548 522.724 367.503 522.816C367.459 522.908 367.38 522.979 367.284 523.014C367.242 523.03 367.197 523.038 367.152 523.038Z" fill="#F2F2F2"/>
<path d="M372.864 523.038C372.785 523.039 372.708 523.016 372.643 522.972C372.578 522.928 372.528 522.864 372.501 522.791C356.54 480.496 356.61 472.462 356.741 456.416C356.795 450.28 356.849 443.295 356.031 432.845C354.325 411.003 342.756 389.941 325.082 376.504C325.008 376.439 324.962 376.349 324.952 376.251C324.942 376.153 324.971 376.055 325.031 375.978C325.091 375.9 325.178 375.848 325.275 375.832C325.372 375.817 325.471 375.839 325.553 375.894C343.397 389.478 355.074 410.764 356.811 432.814C357.629 443.334 357.582 450.303 357.521 456.454C357.389 472.369 357.32 480.38 373.227 522.521C373.245 522.568 373.254 522.618 373.253 522.668C373.251 522.719 373.24 522.769 373.219 522.815C373.198 522.861 373.168 522.902 373.131 522.937C373.094 522.971 373.05 522.997 373.003 523.014L372.864 523.038Z" fill="#F2F2F2"/>
<path d="M378.722 523.045C378.646 523.045 378.571 523.022 378.508 522.979C378.445 522.937 378.396 522.877 378.367 522.806C377.503 520.73 375.944 517.311 374.284 513.683C372.2 509.114 370.047 504.383 369.02 501.759C355.005 465.955 358.354 454.942 361.588 444.275C362.561 441.298 363.316 438.255 363.849 435.168C366.852 415.788 353.947 398.894 336.065 375.5L334.367 373.27C334.307 373.187 334.282 373.085 334.296 372.984C334.311 372.884 334.364 372.792 334.444 372.73C334.525 372.667 334.627 372.64 334.728 372.653C334.83 372.666 334.922 372.718 334.984 372.799L336.698 375.045C354.673 398.593 367.662 415.595 364.613 435.299C364.069 438.424 363.295 441.504 362.298 444.515C359.103 455.042 355.8 465.932 369.715 501.481C370.734 504.09 372.887 508.806 374.963 513.367C376.623 517.002 378.189 520.437 379.054 522.513C379.091 522.608 379.089 522.714 379.051 522.809C379.012 522.904 378.939 522.98 378.845 523.022C378.805 523.035 378.764 523.043 378.722 523.045Z" fill="#F2F2F2"/>
<path d="M385.699 523.045C385.619 523.044 385.543 523.019 385.478 522.974C385.413 522.928 385.364 522.865 385.336 522.791L384.309 519.997C380.196 508.86 373.975 492.019 372.848 480.951C372.076 473.233 371.999 466.017 371.945 459.032C371.737 434.659 371.544 411.644 341.143 371.626C341.083 371.543 341.058 371.441 341.072 371.34C341.087 371.24 341.14 371.148 341.22 371.086C341.301 371.024 341.403 370.996 341.504 371.009C341.605 371.022 341.697 371.075 341.76 371.155C372.316 411.381 372.508 434.52 372.717 459.025C372.771 465.971 372.833 473.195 373.62 480.874C374.731 491.842 380.929 508.659 385.035 519.734L386.061 522.521C386.094 522.618 386.089 522.724 386.046 522.818C386.003 522.911 385.925 522.984 385.83 523.022C385.788 523.037 385.743 523.045 385.699 523.045Z" fill="#F2F2F2"/>
<path d="M397.414 523.045C397.336 523.043 397.259 523.018 397.195 522.973C397.13 522.927 397.081 522.864 397.052 522.791C396.666 521.71 395.678 519.456 394.644 517.079C393.038 513.382 391.209 509.199 390.738 507.494C382.202 476.915 381.932 458.662 381.716 444.005C381.384 421.314 381.176 407.615 348.891 370.299C348.825 370.221 348.792 370.12 348.8 370.018C348.808 369.916 348.856 369.821 348.934 369.754C349.012 369.688 349.113 369.655 349.215 369.663C349.317 369.671 349.412 369.719 349.478 369.797C381.948 407.322 382.148 421.122 382.488 443.99C382.704 458.608 382.974 476.799 391.479 507.277C391.942 508.929 393.756 513.089 395.338 516.763C396.427 519.256 397.36 521.394 397.762 522.521C397.78 522.568 397.789 522.618 397.788 522.668C397.787 522.719 397.775 522.769 397.754 522.815C397.733 522.861 397.703 522.902 397.666 522.937C397.629 522.971 397.586 522.997 397.538 523.014C397.499 523.031 397.457 523.041 397.414 523.045Z" fill="#F2F2F2"/>
<path d="M319.131 523.069H318.992C318.945 523.051 318.901 523.025 318.864 522.991C318.827 522.956 318.797 522.915 318.776 522.869C318.755 522.823 318.744 522.773 318.742 522.722C318.741 522.672 318.75 522.622 318.768 522.575C320.721 517.211 321.038 510.835 321.339 504.669C321.67 498.101 322.002 491.309 324.31 485.667C325.19 483.529 326.239 481.422 327.258 479.392C328.619 476.803 329.82 474.133 330.855 471.397C332.583 466.454 333.202 461.192 332.668 455.983C332.135 450.775 330.462 445.747 327.768 441.258C327.474 440.772 327.158 440.293 326.849 439.807C325.553 437.769 324.21 435.662 323.762 433.239C323.559 431.536 323.601 429.813 323.885 428.122C323.955 427.512 324.032 426.902 324.078 426.293C324.688 418.891 321.717 411.042 315.936 404.759C314.392 403.108 313.049 401.472 311.722 399.889C309.005 396.648 306.443 393.584 303.085 390.998C303.005 390.936 302.952 390.844 302.938 390.744C302.924 390.643 302.949 390.541 303.008 390.458C303.071 390.377 303.163 390.325 303.264 390.312C303.365 390.299 303.468 390.326 303.549 390.388C306.975 393.02 309.569 396.115 312.316 399.395C313.636 400.939 314.994 402.598 316.507 404.235C322.434 410.679 325.475 418.737 324.85 426.354C324.804 426.979 324.727 427.597 324.65 428.214C324.377 429.831 324.336 431.479 324.526 433.108C324.904 435.384 326.201 437.422 327.467 439.39C327.775 439.876 328.092 440.37 328.385 440.864C331.143 445.448 332.858 450.582 333.407 455.903C333.957 461.224 333.328 466.601 331.565 471.651C330.517 474.416 329.303 477.114 327.93 479.732C326.919 481.754 325.869 483.846 325.005 485.96C322.743 491.479 322.411 498.209 322.087 504.707C321.778 510.928 321.462 517.365 319.463 522.837C319.435 522.903 319.389 522.96 319.331 523.001C319.272 523.042 319.203 523.065 319.131 523.069Z" fill="#F2F2F2"/>
<path d="M318.853 523.069C318.805 523.079 318.755 523.079 318.707 523.069C318.613 523.029 318.538 522.955 318.497 522.861C318.457 522.768 318.455 522.662 318.49 522.567C325.915 503.936 332.846 485.629 336.111 466.48C338.426 452.966 338.426 441.273 336.234 430.746C333.595 418.212 327.482 407.299 319.038 400.013C314.488 396.056 309.351 392.831 303.811 390.45C303.718 390.408 303.644 390.332 303.606 390.237C303.567 390.142 303.566 390.036 303.602 389.941C303.623 389.894 303.652 389.852 303.688 389.816C303.725 389.781 303.768 389.753 303.815 389.735C303.863 389.716 303.913 389.707 303.964 389.708C304.015 389.709 304.065 389.72 304.112 389.74C309.73 392.146 314.938 395.414 319.548 399.426C328.123 406.828 334.32 417.888 336.998 430.584C339.236 441.211 339.198 452.966 336.882 466.611C333.602 485.829 326.656 504.183 319.216 522.852C319.184 522.92 319.132 522.977 319.068 523.016C319.003 523.054 318.928 523.073 318.853 523.069Z" fill="#F2F2F2"/>
<path d="M305.462 523.076H305.37C305.27 523.051 305.184 522.987 305.131 522.899C305.077 522.811 305.061 522.706 305.084 522.605C307.554 512.101 312.162 501.975 316.623 492.181C317.842 489.503 319.1 486.732 320.296 484.015C322.666 478.613 325.282 472.238 326.262 465.539C327.289 458.507 326.262 451.855 323.314 446.807C322.673 445.703 321.917 444.623 321.192 443.589C319.641 441.603 318.416 439.384 317.564 437.013C316.839 434.613 316.9 432.073 316.954 429.611C316.954 428.84 316.954 428.014 316.954 427.211C316.823 414.916 309.236 402.591 298.084 396.532C298.039 396.508 297.998 396.476 297.966 396.437C297.933 396.398 297.908 396.352 297.893 396.303C297.878 396.255 297.873 396.203 297.878 396.152C297.883 396.102 297.898 396.052 297.922 396.007C297.972 395.918 298.055 395.853 298.153 395.824C298.251 395.795 298.356 395.805 298.447 395.853C309.846 402.027 317.595 414.638 317.742 427.203C317.742 428.014 317.742 428.824 317.742 429.634C317.561 432.035 317.757 434.449 318.32 436.789C319.015 439.104 320.451 441.157 321.84 443.141C322.573 444.198 323.337 445.287 323.993 446.421C327.852 453.082 327.783 460.553 327.08 465.647C326.085 472.438 323.453 478.852 321.053 484.324C319.856 487.049 318.598 489.819 317.379 492.498C312.933 502.261 308.341 512.348 305.887 522.783C305.865 522.876 305.809 522.957 305.731 523.011C305.652 523.065 305.557 523.088 305.462 523.076Z" fill="#F2F2F2"/>
<path d="M294.812 523.069H294.734C294.685 523.058 294.638 523.039 294.596 523.01C294.554 522.982 294.518 522.945 294.49 522.903C294.462 522.861 294.442 522.814 294.433 522.764C294.423 522.714 294.423 522.663 294.433 522.613C296.386 513.514 300.77 504.862 305.007 496.465C305.455 495.585 305.902 494.705 306.342 493.825C312.44 481.685 317.788 468.688 315.604 455.914C315.264 453.892 314.724 451.862 314.207 449.894C313.496 447.431 312.955 444.922 312.586 442.385C312.362 440.143 312.272 437.891 312.316 435.639C312.398 432.992 312.249 430.342 311.868 427.72C310.032 417.039 301.179 409.545 292.751 403.54C292.67 403.478 292.615 403.388 292.598 403.288C292.581 403.188 292.602 403.085 292.658 403C292.719 402.917 292.809 402.861 292.91 402.844C293.011 402.827 293.114 402.849 293.199 402.907C301.742 408.966 310.734 416.63 312.64 427.605C313.032 430.269 313.187 432.963 313.103 435.655C312.921 440.402 313.555 445.145 314.979 449.678C315.504 451.654 316.044 453.699 316.391 455.76C318.583 468.757 313.188 481.893 307.029 494.149L305.702 496.789C301.48 505.132 297.119 513.768 295.19 522.752C295.174 522.841 295.127 522.921 295.058 522.979C294.989 523.036 294.902 523.068 294.812 523.069Z" fill="#F2F2F2"/>
<path d="M-162.68 522.69H124.777C124.777 522.69 116.696 499.073 114.033 489.04C110.174 474.584 101.954 447.455 92.0909 435.076C72.271 410.193 34.3139 409.421 8.99118 390.157C-1.20428 382.439 -8.93771 371.942 -17.6282 362.527C-53.787 323.35 -74.9189 351.204 -100.867 338.763C-110.746 334.032 -117.36 323.836 -127.571 319.9C-138.515 315.678 -162.217 315.069 -162.642 328.151L-162.68 522.69Z" fill="#8097A6"/>
<path d="M126.397 523.848H-163.799V328.151C-163.77 326.428 -163.305 324.74 -162.448 323.245C-161.591 321.75 -160.37 320.496 -158.898 319.599C-150.895 314.297 -135.05 315.74 -127.154 318.827C-121.543 320.988 -116.982 325.002 -112.567 328.861C-108.778 332.172 -104.849 335.598 -100.365 337.744C-90.9723 342.244 -82.197 341.31 -72.9122 340.314C-57.3913 338.655 -39.7943 336.779 -16.7407 361.778C-14.3018 364.417 -11.9092 367.18 -9.60152 369.835C-3.66637 376.681 2.46944 383.728 9.73207 389.277C20.4601 397.435 33.735 402.328 46.5778 407.028C63.758 413.357 81.5171 419.902 93.0401 434.358C103.073 446.961 111.231 473.843 115.191 488.747C117.807 498.587 125.826 522.081 125.911 522.32L126.397 523.848ZM-161.484 521.533H123.156C121.327 516.13 115.16 497.784 112.914 489.349C109.765 477.463 101.345 448.536 91.1878 435.786C80.0739 421.832 63.403 415.719 45.7365 409.182C32.7394 404.397 19.2947 399.442 8.28879 391.075C0.840927 385.41 -5.37976 378.24 -11.3844 371.31C-13.6998 368.655 -16.0692 365.907 -18.4772 363.298C-40.7436 339.156 -56.9977 340.916 -72.7038 342.568C-82.3282 343.594 -91.42 344.567 -101.407 339.789C-106.184 337.474 -110.221 333.97 -114.126 330.528C-118.587 326.63 -122.801 322.949 -128.019 320.934C-135.459 318.063 -150.293 316.604 -157.648 321.482C-158.8 322.176 -159.757 323.15 -160.432 324.313C-161.107 325.476 -161.476 326.791 -161.507 328.135L-161.484 521.533Z" fill="#F2F2F2"/>
<path d="M77.8669 425.181C52.3975 425.181 32.7938 420.728 17.9058 411.582C4.32985 403.247 -3.51935 392.117 -10.4424 382.292C-16.802 373.27 -22.7912 364.749 -32.1608 359.91C-41.8778 354.886 -53.393 354.878 -64.5301 354.863C-76.7091 354.863 -89.3126 354.863 -99.4926 348.202C-102.518 346.226 -105.582 343.27 -108.831 340.137C-120.262 329.108 -134.486 315.385 -162.533 327.016C-162.629 327.053 -162.735 327.052 -162.829 327.013C-162.924 326.974 -163 326.901 -163.043 326.808C-163.079 326.712 -163.078 326.606 -163.039 326.512C-163.001 326.417 -162.927 326.341 -162.834 326.298C-134.316 314.459 -119.884 328.374 -108.291 339.558C-105.073 342.645 -102.04 345.593 -99.0295 347.53C-89.0424 354.037 -76.5625 354.052 -64.4838 354.068C-53.2618 354.068 -41.654 354.068 -31.7672 359.2C-22.2509 364.124 -16.1846 372.722 -9.77094 381.829C4.58453 402.189 20.8541 425.266 81.3014 424.363C81.4032 424.363 81.501 424.402 81.5744 424.473C81.6478 424.543 81.691 424.64 81.695 424.741C81.6961 424.792 81.6871 424.842 81.6686 424.89C81.6502 424.937 81.6226 424.98 81.5875 425.016C81.5524 425.053 81.5104 425.082 81.4639 425.103C81.4175 425.123 81.3675 425.134 81.3168 425.135L77.8669 425.181Z" fill="#F2F2F2"/>
<path d="M91.1185 434.281C16.0841 430.923 15.5361 430.121 -13.36 388.127L-14.1318 386.969C-35.3486 356.097 -52.1661 358.675 -68.4279 361.13C-76.1459 362.303 -84.1572 363.507 -92.4 360.998C-97.8798 359.331 -103.028 354.731 -108.994 349.421C-121.427 338.307 -136.894 324.485 -162.518 334.286C-162.613 334.322 -162.718 334.318 -162.811 334.276C-162.903 334.234 -162.976 334.157 -163.012 334.063C-163.03 334.015 -163.039 333.965 -163.038 333.915C-163.037 333.864 -163.025 333.814 -163.004 333.768C-162.984 333.722 -162.954 333.681 -162.916 333.647C-162.879 333.612 -162.836 333.586 -162.788 333.569C-136.732 323.597 -121.065 337.597 -108.477 348.843C-102.588 354.106 -97.4939 358.652 -92.1762 360.273C-84.1032 362.735 -76.5395 361.593 -68.5437 360.381C-52.0426 357.888 -34.9859 355.31 -13.4912 386.545L-12.7194 387.703C15.9683 429.38 16.5163 430.19 91.1416 433.524C91.244 433.524 91.3421 433.565 91.4145 433.637C91.4869 433.71 91.5275 433.808 91.5275 433.91C91.5275 434.013 91.4869 434.111 91.4145 434.183C91.3421 434.255 91.244 434.296 91.1416 434.296L91.1185 434.281Z" fill="#F2F2F2"/>
<path d="M90.6787 453.089C61.4043 453.089 37.6175 449.3 19.8506 441.806C0.663712 433.71 -4.01338 425.089 -10.4965 413.164L-10.5891 412.994C-35.1015 367.867 -50.8076 368.446 -74.5867 369.28L-79.8736 369.457C-99.4155 369.974 -109.078 361.037 -118.417 352.401C-128.975 342.637 -138.947 333.414 -162.564 341.094C-162.661 341.125 -162.767 341.117 -162.858 341.071C-162.95 341.024 -163.019 340.944 -163.05 340.847C-163.082 340.749 -163.074 340.644 -163.027 340.552C-162.981 340.461 -162.901 340.392 -162.803 340.36C-138.754 332.542 -128.62 341.904 -117.892 351.829C-108.631 360.365 -99.1299 369.203 -79.8967 368.685L-74.6099 368.508C-50.5529 367.659 -34.6538 367.096 -9.90993 412.632L-9.81732 412.794C-3.41138 424.587 1.21942 433.1 20.1517 441.096C40.0178 449.477 67.4861 453.198 101.808 452.14C101.909 452.14 102.007 452.178 102.081 452.247C102.156 452.315 102.202 452.41 102.209 452.511C102.211 452.614 102.173 452.714 102.102 452.789C102.032 452.864 101.934 452.908 101.831 452.912C98.0339 453.03 94.3164 453.089 90.6787 453.089Z" fill="#F2F2F2"/>
<path d="M99.3765 463.57C81.2591 463.653 63.1691 462.155 45.312 459.094C-1.37418 450.928 -7.26302 439.799 -20.1752 415.457C-21.6339 412.717 -23.1389 409.876 -24.806 406.82C-41.0138 377.26 -56.9592 378.657 -72.3566 380.015C-77.5199 380.471 -82.8685 380.942 -88.163 380.262C-97.278 379.082 -106.061 371.912 -115.354 364.333C-129.609 352.694 -144.358 340.661 -162.534 347.754C-162.629 347.79 -162.734 347.788 -162.828 347.747C-162.922 347.707 -162.996 347.632 -163.035 347.538C-163.071 347.443 -163.069 347.337 -163.028 347.244C-162.988 347.15 -162.913 347.076 -162.819 347.036C-144.211 339.782 -129.292 351.953 -114.867 363.731C-105.66 371.248 -96.9615 378.341 -88.0704 379.491C-82.8531 380.17 -77.5508 379.699 -72.4183 379.251C-56.7894 377.901 -40.6202 376.442 -24.1346 406.457C-22.4597 409.545 -20.9547 412.362 -19.5038 415.109C-6.71504 439.236 -0.872498 450.242 45.4355 458.33C64.3677 461.641 84.1721 463.069 105.975 462.706C106.026 462.705 106.076 462.714 106.122 462.733C106.169 462.751 106.212 462.779 106.248 462.814C106.284 462.849 106.312 462.891 106.332 462.938C106.351 462.984 106.361 463.034 106.361 463.084C106.362 463.135 106.353 463.185 106.335 463.233C106.316 463.28 106.289 463.323 106.254 463.359C106.219 463.396 106.177 463.425 106.13 463.446C106.084 463.466 106.034 463.477 105.983 463.478C103.768 463.516 101.561 463.57 99.3765 463.57Z" fill="#F2F2F2"/>
<path d="M92.3534 469.969C84.2803 469.969 76.1456 469.675 67.1464 469.305C-8.00372 466.218 -19.1794 441.52 -28.1631 421.662C-29.6996 418.064 -31.4442 414.56 -33.3882 411.165C-45.3125 391.338 -63.3109 389.555 -79.1868 387.942C-84.4813 387.417 -89.4903 386.915 -94.0131 385.789C-102.017 383.79 -110.128 377.067 -118.711 369.959C-132.541 358.505 -146.835 346.666 -162.533 352.748C-162.581 352.766 -162.632 352.775 -162.683 352.774C-162.734 352.773 -162.784 352.762 -162.831 352.741C-162.878 352.72 -162.92 352.69 -162.955 352.653C-162.99 352.616 -163.017 352.572 -163.035 352.524C-163.054 352.476 -163.063 352.426 -163.061 352.374C-163.06 352.323 -163.049 352.273 -163.028 352.226C-163.007 352.18 -162.977 352.138 -162.94 352.103C-162.903 352.068 -162.859 352.04 -162.811 352.022C-146.696 345.778 -132.217 357.772 -118.217 369.365C-109.727 376.419 -101.654 383.08 -93.8201 385.032C-89.3514 386.151 -84.3733 386.645 -79.1019 387.178C-63.0407 388.783 -44.8417 390.605 -32.7245 410.764C-30.765 414.187 -29.005 417.72 -27.4531 421.345C-18.562 441.003 -7.4789 465.461 67.1773 468.533C81.9649 469.143 94.3678 469.544 108.083 468.772C108.134 468.768 108.185 468.774 108.233 468.791C108.282 468.807 108.326 468.832 108.365 468.866C108.403 468.9 108.434 468.942 108.456 468.988C108.478 469.034 108.49 469.084 108.492 469.135C108.496 469.237 108.461 469.337 108.393 469.413C108.325 469.489 108.231 469.536 108.129 469.544C102.734 469.845 97.5553 469.969 92.3534 469.969Z" fill="#F2F2F2"/>
<path d="M112.15 482.518C73.2201 480.897 -9.02281 466.619 -23.88 450.527C-29.2825 444.708 -31.6828 436.99 -34.0368 429.526C-35.5804 424.741 -37.124 419.794 -39.4394 415.356C-46.2236 402.39 -60.6176 393.445 -75.2509 393.09C-79.4073 393.097 -83.5577 393.407 -87.6692 394.016C-93.751 394.788 -100.018 395.56 -106.146 394.263C-113.409 392.719 -119.722 385.14 -126.414 377.083C-136.547 364.88 -147.028 352.254 -162.541 357.247C-162.59 357.263 -162.641 357.269 -162.692 357.264C-162.743 357.26 -162.793 357.245 -162.838 357.222C-162.883 357.198 -162.923 357.165 -162.956 357.126C-162.988 357.087 -163.013 357.042 -163.028 356.993C-163.043 356.945 -163.049 356.895 -163.045 356.845C-163.041 356.795 -163.027 356.746 -163.004 356.702C-162.981 356.657 -162.95 356.618 -162.911 356.586C-162.873 356.553 -162.829 356.529 -162.781 356.514C-146.774 351.359 -135.637 364.765 -125.819 376.581C-119.22 384.531 -112.984 392.017 -105.992 393.499C-100.01 394.749 -93.7818 393.985 -87.7618 393.236C-83.6141 392.626 -79.4278 392.317 -75.2355 392.31C-60.3321 392.673 -45.6679 401.788 -38.7525 414.993C-36.4371 419.485 -34.8318 424.471 -33.3499 429.287C-31.0345 436.666 -28.6034 444.299 -23.3165 450.002C-8.89934 465.685 74.3315 480.18 112.15 481.746C112.251 481.752 112.347 481.797 112.416 481.872C112.485 481.947 112.522 482.046 112.52 482.148C112.516 482.245 112.476 482.337 112.407 482.405C112.339 482.474 112.247 482.514 112.15 482.518Z" fill="#F2F2F2"/>
<path d="M114.249 490.221C78.1908 488.507 40.5887 482.433 2.59305 472.176C-34.0983 462.266 -38.0191 448.906 -42.1713 434.767C-43.8693 428.994 -45.6213 423.012 -49.843 417.309C-55.3768 409.838 -62.9636 399.611 -84.1649 403.031C-123.967 409.452 -139.588 389.377 -151.003 374.721C-155.209 369.318 -158.844 364.641 -162.888 362.372C-162.933 362.348 -162.973 362.315 -163.005 362.275C-163.036 362.236 -163.06 362.19 -163.073 362.141C-163.087 362.092 -163.091 362.041 -163.084 361.99C-163.078 361.94 -163.061 361.891 -163.035 361.847C-162.983 361.76 -162.9 361.696 -162.802 361.669C-162.704 361.641 -162.6 361.653 -162.51 361.701C-158.335 364.062 -154.653 368.794 -150.393 374.266C-139.102 388.775 -123.635 408.642 -84.2884 402.29C-64.268 399.064 -56.2798 407.345 -49.2256 416.877C-44.9189 422.688 -43.1438 428.731 -41.4304 434.574C-37.3553 448.466 -33.4963 461.656 2.77826 471.451C40.7199 481.7 78.2217 487.766 114.249 489.472C114.352 489.478 114.449 489.524 114.518 489.601C114.587 489.677 114.624 489.778 114.62 489.881C114.61 489.973 114.567 490.059 114.499 490.121C114.431 490.184 114.342 490.219 114.249 490.221Z" fill="#F2F2F2"/>
<path d="M117.143 499.891C-22.9922 488.831 -33.9981 464.651 -44.6489 441.266C-46.1246 437.871 -47.7706 434.553 -49.5807 431.325C-61.8678 410.216 -81.4406 408.881 -102.171 407.468C-121.829 406.125 -144.111 404.605 -162.958 385.596C-163.029 385.523 -163.068 385.426 -163.068 385.325C-163.068 385.224 -163.029 385.127 -162.958 385.055C-162.922 385.019 -162.879 384.99 -162.832 384.971C-162.785 384.951 -162.735 384.941 -162.684 384.941C-162.633 384.941 -162.583 384.951 -162.536 384.971C-162.489 384.99 -162.446 385.019 -162.41 385.055C-143.771 403.856 -122.593 405.3 -102.117 406.666C-81.1782 408.094 -61.4047 409.444 -48.917 430.908C-47.0901 434.165 -45.4311 437.514 -43.9466 440.941C-33.3884 464.095 -22.4751 488.098 117.174 499.127C117.277 499.127 117.375 499.168 117.447 499.24C117.52 499.313 117.56 499.411 117.56 499.513C117.56 499.616 117.52 499.714 117.447 499.786C117.375 499.858 117.277 499.899 117.174 499.899L117.143 499.891Z" fill="#F2F2F2"/>
<path d="M119.474 507.169C-18.5388 499.706 -38.5285 467.985 -53.1309 444.823C-55.8476 440.509 -58.4177 436.434 -61.5049 433C-75.8295 417.131 -100.813 413.897 -122.855 411.05C-140.861 408.734 -156.421 406.704 -162.989 398.4C-163.051 398.319 -163.079 398.217 -163.066 398.115C-163.053 398.014 -163 397.922 -162.919 397.859C-162.839 397.796 -162.738 397.767 -162.637 397.779C-162.535 397.791 -162.443 397.842 -162.379 397.921C-156.019 405.979 -140.614 407.955 -122.77 410.27C-100.597 413.141 -75.4668 416.39 -60.9415 432.467C-57.7926 435.956 -55.2148 440.054 -52.4517 444.399C-37.9419 467.414 -18.0758 498.942 119.521 506.382C119.623 506.382 119.721 506.423 119.794 506.495C119.866 506.568 119.907 506.666 119.907 506.768C119.907 506.87 119.866 506.969 119.794 507.041C119.721 507.113 119.623 507.154 119.521 507.154L119.474 507.169Z" fill="#F2F2F2"/>
<path d="M122.446 516.161C88.5793 513.9 50.2286 511.337 14.6023 501.165C-27.4376 489.171 -39.6784 470.833 -50.4836 454.648C-57.4297 444.299 -63.9283 434.512 -77.5891 428.099C-87.2521 423.56 -98.2657 423.105 -108.916 422.657C-112.891 422.495 -117.005 422.326 -120.995 421.947L-122.415 421.816C-131.414 420.983 -152.515 419.045 -162.935 410.046C-163.011 409.978 -163.058 409.882 -163.065 409.78C-163.073 409.678 -163.04 409.577 -162.973 409.498C-162.941 409.46 -162.901 409.428 -162.856 409.405C-162.811 409.382 -162.762 409.369 -162.711 409.365C-162.661 409.361 -162.61 409.368 -162.563 409.384C-162.515 409.4 -162.471 409.426 -162.433 409.46C-152.16 418.297 -131.268 420.226 -122.346 421.037L-120.926 421.168C-116.959 421.546 -112.853 421.716 -108.886 421.878C-98.1576 422.326 -87.0668 422.789 -77.2418 427.396C-63.3495 433.903 -56.7969 443.766 -49.8198 454.216C-39.0918 470.285 -26.936 488.5 14.8261 500.416C50.3752 510.558 88.6873 513.12 122.484 515.381C122.586 515.389 122.681 515.436 122.748 515.513C122.816 515.589 122.851 515.689 122.847 515.79C122.845 515.841 122.833 515.891 122.812 515.937C122.791 515.983 122.761 516.024 122.723 516.059C122.686 516.093 122.642 516.12 122.595 516.138C122.547 516.155 122.497 516.163 122.446 516.161Z" fill="#F2F2F2"/>
<path d="M-162.842 465.755C-162.842 465.755 -128.451 447.139 -118.533 443.782C-77.1571 429.773 -66.6298 441.86 -36.1668 439.197C-6.22874 436.573 39.0141 416.089 67.9798 404.96L43.7684 522.69H-162.68L-162.842 465.755Z" fill="#B8BFA0"/>
<path d="M44.7102 523.848H-163.382L-163.707 523.207C-163.822 522.968 -163.822 522.968 -163.907 494.226L-163.984 465.755V465.068L-163.375 464.744C-161.97 463.972 -128.783 446.035 -118.888 442.686C-92.3768 433.71 -78.5385 435.33 -63.8897 437.051C-55.7163 438.016 -47.2574 439.004 -36.2516 438.039C-12.2718 435.94 21.8495 422.21 49.1943 411.173C55.7624 408.526 61.9676 406.025 67.5632 403.88L69.539 403.108L44.7102 523.848ZM-161.53 521.533H42.827L66.4209 406.805C61.3656 408.765 55.855 410.988 50.0588 413.319C22.5364 424.417 -11.7315 438.217 -36.0663 440.332C-47.3115 441.32 -55.8861 440.332 -64.1753 439.336C-78.5616 437.646 -92.1453 436.056 -118.163 444.862C-127.154 447.903 -157.03 463.926 -161.677 466.472C-161.661 472.338 -161.553 514.038 -161.53 521.533Z" fill="#F2F2F2"/>
<path d="M-162.796 481.476C-162.896 481.475 -162.993 481.437 -163.066 481.368C-163.102 481.332 -163.131 481.29 -163.15 481.243C-163.17 481.196 -163.18 481.145 -163.18 481.094C-163.18 481.043 -163.17 480.993 -163.15 480.946C-163.131 480.899 -163.102 480.856 -163.066 480.82C-134.054 450.581 -126.251 450.126 -75.3973 447.154C-67.9186 446.714 -59.4365 446.22 -49.843 445.572C-11.8242 442.987 47.9594 416.645 57.2673 408.773C57.3461 408.707 57.4477 408.676 57.5497 408.685C57.6518 408.695 57.7459 408.744 57.8114 408.823C57.8769 408.902 57.9084 409.003 57.899 409.105C57.8896 409.207 57.84 409.302 57.7612 409.367C48.4147 417.263 -11.6313 443.743 -49.8122 446.336C-59.4134 446.992 -67.8954 447.486 -75.3742 447.926C-125.942 450.882 -133.722 451.33 -162.518 481.353C-162.553 481.392 -162.596 481.423 -162.644 481.444C-162.692 481.466 -162.743 481.477 -162.796 481.476Z" fill="#F2F2F2"/>
<path d="M-162.757 496.357C-162.839 496.357 -162.918 496.33 -162.981 496.279C-163.063 496.22 -163.119 496.132 -163.136 496.032C-163.154 495.932 -163.131 495.83 -163.074 495.747C-131.291 450.944 -93.1334 451.862 -74.8032 452.302C-73.4757 452.302 -72.2717 452.364 -71.1912 452.364H-70.072C-23.9879 452.364 32.1219 433.972 66.7912 407.43C66.873 407.368 66.976 407.342 67.0773 407.357C67.1786 407.371 67.27 407.425 67.3314 407.507C67.3928 407.589 67.4192 407.692 67.4047 407.793C67.3902 407.894 67.3361 407.986 67.2542 408.047C32.4692 434.674 -23.8181 453.136 -70.072 453.136H-71.1912C-72.2794 453.136 -73.5065 453.136 -74.8186 453.074C-93.0176 452.634 -130.905 451.731 -162.441 496.194C-162.478 496.244 -162.525 496.284 -162.58 496.312C-162.635 496.341 -162.696 496.356 -162.757 496.357Z" fill="#F2F2F2"/>
<path d="M67.27 449.825C82.9761 434.782 103.622 422.256 109.348 401.279C113.84 384.832 97.8641 376.859 97.8641 376.859C73.838 396.046 49.3102 429.611 20.4603 440.247C0.107986 447.749 -22.5984 446.128 -43.2749 452.65C-81.8262 464.79 -107.666 498.695 -138.098 522.69L20.607 522.629C20.607 522.629 32.0605 483.56 67.27 449.825Z" fill="#D6D4AF"/>
<path d="M-141.433 523.856L-138.816 521.787C-129.817 514.687 -121.065 506.552 -112.575 498.68C-92.1378 479.74 -71.0059 460.159 -43.6611 451.546C-33.8129 448.459 -23.3936 447.147 -13.3293 445.896C-2.15369 444.515 9.39243 443.087 20.0278 439.166C38.8983 432.22 55.9088 415.302 72.3636 398.955C80.8919 390.466 88.9495 382.47 97.1151 375.956L97.694 375.493L98.35 375.825C98.5198 375.91 115.129 384.415 110.436 401.587C105.991 417.841 92.7468 429.164 79.9426 440.108C75.937 443.527 71.8079 447.054 68.0415 450.658C33.5034 483.776 21.8493 522.567 21.7181 522.953L21.4711 523.771H20.6067L-141.433 523.856ZM97.9873 378.248C90.1304 384.6 82.3043 392.38 74.0229 400.63C57.3984 417.116 40.2027 434.242 20.8614 441.335C9.97128 445.348 -1.71376 446.799 -13.0129 448.196C-22.9768 449.431 -33.2881 450.712 -42.9279 453.753C-69.7865 462.243 -90.7177 481.615 -110.97 500.378C-118.688 507.524 -126.637 514.895 -134.795 521.533L19.7577 521.455C21.6718 515.59 34.2675 479.825 66.4747 448.976C70.2797 445.325 74.4397 441.767 78.4685 438.333C91.0102 427.612 103.976 416.529 108.229 400.954C111.965 387.309 100.866 379.907 97.9873 378.248Z" fill="#F2F2F2"/>
<path d="M23.2461 515.613C23.1937 515.612 23.1421 515.601 23.0942 515.579C23.0463 515.558 23.0031 515.528 22.9672 515.489C22.9312 515.451 22.9033 515.407 22.8849 515.357C22.8665 515.308 22.8581 515.256 22.8602 515.204C23.2343 509.408 24.008 503.644 25.1756 497.954C31.0876 467.7 54.6352 451.646 73.5597 438.796C80.6602 433.957 87.3672 429.395 92.1446 424.718C106.809 410.37 103.32 398.23 99.6233 385.356C99.1989 383.874 98.7667 382.393 98.373 380.911C98.3464 380.808 98.3616 380.7 98.4151 380.609C98.4687 380.517 98.5563 380.451 98.6586 380.425C98.7609 380.398 98.8697 380.413 98.9609 380.467C99.052 380.52 99.1182 380.608 99.1448 380.71C99.5385 382.192 99.9629 383.666 100.387 385.14C103.984 397.643 107.704 410.61 92.6694 425.274C87.838 429.997 81.0924 434.582 73.9765 439.436C55.1677 452.24 31.7667 468.17 25.9165 498.093C24.7617 503.763 23.9983 509.506 23.632 515.281C23.6189 515.374 23.5725 515.459 23.5015 515.52C23.4305 515.581 23.3397 515.614 23.2461 515.613Z" fill="#F2F2F2"/>
<path d="M6.15074 522.999C6.05557 522.999 5.96378 522.964 5.89368 522.899C5.82358 522.835 5.78033 522.747 5.77256 522.652C0.501171 471.52 27.6068 454.61 49.387 441.026C55.7543 437.059 61.7357 433.308 66.3665 429.071C78.4529 417.957 87.483 400.167 89.3739 383.736C89.3851 383.633 89.4366 383.54 89.5169 383.475C89.5973 383.411 89.6999 383.381 89.8022 383.392C89.9046 383.403 89.9983 383.455 90.0627 383.535C90.1271 383.615 90.1569 383.718 90.1457 383.82C88.2393 400.422 79.109 418.413 66.8991 429.634C62.2683 433.918 56.1942 437.692 49.796 441.682C28.1856 455.158 1.31928 471.921 6.57523 522.575C6.58056 522.625 6.57578 522.677 6.56117 522.725C6.54656 522.774 6.52241 522.82 6.49012 522.859C6.45782 522.899 6.41802 522.931 6.37301 522.955C6.32801 522.979 6.2787 522.994 6.22792 522.999H6.15074Z" fill="#F2F2F2"/>
<path d="M15.1963 522.999C15.1008 522.998 15.0089 522.962 14.9379 522.898C14.8669 522.834 14.8216 522.747 14.8104 522.652C12.984 503.535 18.4233 484.431 30.0457 469.143C41.723 454.031 53.9715 446.151 64.7767 439.205C83.3539 427.265 96.7755 418.636 92.4534 381.081C92.4469 381.03 92.4506 380.978 92.4642 380.929C92.4779 380.88 92.5012 380.834 92.5328 380.793C92.5644 380.753 92.6036 380.72 92.6483 380.695C92.693 380.67 92.7422 380.654 92.793 380.648C92.8938 380.64 92.9942 380.67 93.0733 380.733C93.1523 380.796 93.204 380.888 93.2175 380.988C97.6013 419.03 84.0022 427.767 65.1934 439.853C54.3882 446.799 42.2324 454.61 30.6323 469.614C19.1302 484.748 13.7487 503.659 15.559 522.582C15.5643 522.633 15.5595 522.683 15.5448 522.732C15.5301 522.78 15.5058 522.825 15.4734 522.864C15.4411 522.903 15.4012 522.935 15.3563 522.958C15.3113 522.981 15.2621 522.995 15.2117 522.999H15.1963Z" fill="#F2F2F2"/>
<path d="M1.8748 522.999C1.77634 522.999 1.68154 522.962 1.6098 522.894C1.53806 522.827 1.49481 522.735 1.4889 522.636C0.500999 502.315 3.74256 493.686 8.6512 480.627C9.36126 478.729 9.79346 475.009 10.2565 471.08C10.8894 465.639 11.5377 460.02 13.0505 457.604C17.0484 451.222 25.3221 445.819 34.0897 439.992C47.5267 431.155 62.7543 421.06 67.609 404.844C67.6386 404.742 67.7078 404.656 67.8011 404.604C67.8945 404.553 68.0044 404.541 68.1068 404.57C68.2091 404.6 68.2955 404.669 68.3469 404.762C68.3982 404.856 68.4104 404.966 68.3808 405.068C63.4181 421.546 48.0902 431.687 34.5219 440.633C25.8237 446.383 17.6118 451.808 13.6833 458.037C12.2632 460.306 11.5918 466.087 10.9975 471.157C10.5344 475.14 10.0945 478.875 9.34582 480.89C4.47577 493.864 1.25736 502.431 2.23755 522.567C2.23962 522.618 2.23167 522.668 2.21416 522.716C2.19666 522.763 2.16994 522.807 2.13553 522.844C2.10112 522.882 2.0597 522.912 2.01364 522.933C1.96757 522.954 1.91777 522.966 1.86708 522.968L1.8748 522.999Z" fill="#F2F2F2"/>
<path d="M83.1071 429.526C106.462 405.423 96.8528 400.376 96.6444 381.32C96.5981 377.191 97.9411 376.234 101.013 375.145C178.062 347.893 178.116 353.967 194.856 364.417C238.725 391.793 304.745 396.185 325.637 458.893C334.382 485.135 322.681 522.69 322.681 522.69L13.5139 522.567C10.0794 508.582 73.7066 439.228 83.1071 429.526Z" fill="#8097A6"/>
<path d="M323.53 523.848H322.681L12.5876 523.725L12.3715 522.845C8.45845 506.884 81.517 429.457 82.2579 428.724L83.0915 429.496L82.2579 428.724C99.5076 410.918 98.3885 403.964 96.706 393.445C95.9803 389.447 95.5674 385.398 95.4711 381.335C95.4171 376.704 97.0842 375.3 100.611 374.057C172.628 348.588 177.922 352.03 192.07 361.261C193.135 361.955 194.246 362.689 195.45 363.437C208.3 371.456 222.787 377.384 238.115 383.651C274.351 398.469 311.822 413.789 326.725 458.515C335.485 484.818 324.256 521.479 323.769 523.03L323.53 523.848ZM14.5248 521.409L321.817 521.533C323.43 515.937 332.36 482.734 324.541 459.256C309.97 415.534 273.008 400.414 237.258 385.796C222.509 379.768 207.259 373.532 194.238 365.405C193.027 364.634 191.923 363.908 190.819 363.206C177.374 354.43 172.342 351.142 101.399 376.241C98.6509 377.214 97.7634 377.785 97.8019 381.312C97.9041 385.259 98.3144 389.192 99.0291 393.074C100.758 403.88 102.016 411.698 83.9636 430.329C68.7591 445.997 14.1312 507.285 14.5248 521.409Z" fill="#F2F2F2"/>
<path d="M294.904 523.069C294.836 523.069 294.769 523.05 294.711 523.014C294.667 522.99 294.628 522.956 294.597 522.916C294.566 522.876 294.544 522.83 294.531 522.781C294.518 522.733 294.515 522.681 294.522 522.631C294.529 522.581 294.546 522.533 294.572 522.49C308.125 499.505 307.924 476.027 305.686 454.085C303.263 430.283 295.352 423.476 285.334 414.87C280.703 410.857 275.393 406.311 270.152 399.434C270.097 399.353 270.075 399.253 270.091 399.156C270.106 399.059 270.158 398.972 270.236 398.912C270.314 398.852 270.411 398.824 270.509 398.833C270.607 398.843 270.697 398.889 270.762 398.963C275.956 405.755 281.205 410.278 285.843 414.26C295.985 422.982 303.996 429.874 306.45 453.985C308.704 476.058 308.905 499.683 295.244 522.86C295.211 522.922 295.163 522.975 295.103 523.012C295.043 523.048 294.974 523.068 294.904 523.069Z" fill="#F2F2F2"/>
<path d="M274.845 523.061H274.706C274.659 523.044 274.615 523.017 274.578 522.983C274.541 522.949 274.511 522.907 274.49 522.861C274.469 522.815 274.458 522.765 274.456 522.715C274.455 522.664 274.464 522.614 274.482 522.567C283.883 497.352 288.876 477.563 290.69 458.392L290.79 457.288C291.925 445.503 292.751 436.99 260.081 394.61C260.018 394.529 259.991 394.427 260.004 394.326C260.017 394.224 260.069 394.133 260.15 394.07C260.232 394.01 260.333 393.983 260.434 393.996C260.535 394.009 260.626 394.06 260.69 394.139C293.546 436.758 292.712 445.402 291.562 457.365L291.454 458.461C289.656 477.702 284.647 497.553 275.246 522.837C275.211 522.912 275.154 522.973 275.082 523.014C275.01 523.054 274.927 523.07 274.845 523.061Z" fill="#F2F2F2"/>
<path d="M122.777 522.999C122.675 522.995 122.578 522.952 122.506 522.879C122.435 522.806 122.393 522.708 122.392 522.605C122.438 520.547 122.487 518.412 122.538 516.199C123.372 481.183 124.63 428.268 97.2695 391.716C97.2101 391.633 97.1849 391.531 97.1993 391.43C97.2137 391.33 97.2665 391.238 97.3467 391.176C97.3872 391.145 97.4334 391.123 97.4825 391.111C97.5316 391.098 97.5826 391.095 97.6328 391.102C97.683 391.11 97.7312 391.127 97.7748 391.152C97.8185 391.178 97.8565 391.212 97.8869 391.253C125.402 428.021 124.128 481.098 123.31 516.215C123.253 518.422 123.205 520.558 123.163 522.621C123.163 522.671 123.153 522.721 123.134 522.767C123.114 522.814 123.086 522.856 123.05 522.891C123.014 522.926 122.971 522.954 122.925 522.973C122.878 522.991 122.828 523 122.777 522.999Z" fill="#F2F2F2"/>
<path d="M135.505 522.999H135.412C135.363 522.986 135.317 522.964 135.276 522.934C135.236 522.903 135.201 522.865 135.176 522.821C135.15 522.778 135.133 522.729 135.126 522.679C135.119 522.629 135.122 522.577 135.134 522.528C143.401 490.714 141.786 457.136 130.504 426.262C122.57 404.891 115.554 397.705 96.7991 378.472C96.7636 378.435 96.7357 378.392 96.7169 378.345C96.6981 378.298 96.6888 378.247 96.6895 378.196C96.6909 378.094 96.7332 377.996 96.8068 377.924C96.8805 377.852 96.9797 377.813 97.0824 377.814C97.1852 377.816 97.2832 377.858 97.3548 377.932C116.187 397.227 123.233 404.466 131.229 425.992C142.576 457.011 144.21 490.75 135.914 522.721C135.888 522.807 135.833 522.882 135.758 522.932C135.684 522.983 135.595 523.006 135.505 522.999Z" fill="#F2F2F2"/>
<path d="M145.075 522.999H145.029C144.927 522.987 144.835 522.936 144.771 522.857C144.708 522.777 144.678 522.676 144.689 522.575C147.992 490.815 151.172 412.609 109.464 372.359C109.428 372.324 109.4 372.282 109.38 372.236C109.361 372.189 109.351 372.139 109.351 372.089C109.351 372.039 109.361 371.989 109.38 371.943C109.4 371.896 109.428 371.854 109.464 371.819C109.5 371.783 109.543 371.754 109.59 371.735C109.637 371.715 109.687 371.705 109.738 371.705C109.789 371.705 109.839 371.715 109.886 371.735C109.934 371.754 109.976 371.783 110.012 371.819C151.967 412.308 148.787 490.8 145.469 522.667C145.457 522.762 145.41 522.849 145.337 522.91C145.264 522.972 145.17 523.004 145.075 522.999Z" fill="#F2F2F2"/>
<path d="M151.458 522.999H151.396C151.295 522.982 151.206 522.927 151.145 522.844C151.085 522.762 151.058 522.66 151.072 522.559C154.383 500.115 154.684 475.665 152.021 445.611C149.135 413.041 144.102 395.143 120.416 368.593C120.354 368.515 120.323 368.417 120.332 368.318C120.34 368.219 120.387 368.127 120.462 368.061C120.536 367.995 120.633 367.961 120.733 367.965C120.832 367.969 120.926 368.012 120.995 368.083C144.828 394.795 149.891 412.794 152.793 445.541C155.463 475.641 155.155 500.161 151.836 522.675C151.823 522.766 151.777 522.848 151.708 522.908C151.638 522.968 151.549 523 151.458 522.999Z" fill="#F2F2F2"/>
<path d="M161.182 522.999H161.082C161.033 522.987 160.987 522.964 160.947 522.934C160.906 522.903 160.872 522.865 160.847 522.821C160.822 522.777 160.806 522.728 160.8 522.678C160.794 522.628 160.798 522.577 160.812 522.528C172.69 479.446 178.44 427.057 130.951 365.127C130.889 365.044 130.862 364.94 130.877 364.838C130.891 364.735 130.946 364.642 131.028 364.579C131.069 364.549 131.115 364.527 131.164 364.514C131.213 364.502 131.264 364.499 131.314 364.506C131.364 364.513 131.413 364.53 131.456 364.556C131.5 364.582 131.538 364.616 131.568 364.657C153.734 393.561 165.998 422.588 169.062 453.414C171.794 480.836 166.484 504.877 161.553 522.76C161.523 522.833 161.471 522.895 161.405 522.938C161.339 522.98 161.261 523.002 161.182 522.999Z" fill="#F2F2F2"/>
<path d="M173.122 522.999H173.014C172.966 522.985 172.92 522.961 172.881 522.93C172.841 522.898 172.808 522.859 172.784 522.814C172.759 522.77 172.744 522.721 172.739 522.671C172.733 522.62 172.738 522.569 172.752 522.521C174.558 516.13 176.287 510.496 177.815 505.541C185.463 480.604 189.307 468.093 182.693 428.407L182.469 427.057C178.834 405.253 174.318 378.125 159.361 357.34C159.302 357.257 159.278 357.154 159.294 357.053C159.31 356.952 159.365 356.861 159.446 356.8C159.487 356.77 159.534 356.749 159.584 356.738C159.634 356.726 159.685 356.725 159.735 356.733C159.786 356.742 159.834 356.761 159.877 356.788C159.92 356.815 159.957 356.851 159.986 356.892C175.052 377.816 179.582 405.053 183.225 426.933L183.449 428.284C190.102 468.147 186.243 480.72 178.525 505.765C176.981 510.727 175.276 516.354 173.47 522.744C173.443 522.817 173.397 522.879 173.335 522.925C173.273 522.97 173.199 522.996 173.122 522.999Z" fill="#F2F2F2"/>
<path d="M172.404 522.999H172.35C172.25 522.98 172.161 522.923 172.104 522.839C172.046 522.755 172.023 522.652 172.041 522.551C182.152 467.669 171.802 407.283 144.349 361.014C144.298 360.925 144.282 360.82 144.307 360.721C144.331 360.621 144.394 360.535 144.48 360.481C144.57 360.43 144.676 360.416 144.775 360.442C144.875 360.468 144.96 360.532 145.013 360.62C158.388 383.157 168.036 409.599 172.914 437.075C178.015 465.389 177.978 494.389 172.806 522.69C172.786 522.781 172.734 522.861 172.661 522.918C172.588 522.974 172.497 523.003 172.404 522.999Z" fill="#F2F2F2"/>
<path d="M186.003 522.999H185.903C185.806 522.969 185.723 522.902 185.673 522.813C185.623 522.724 185.609 522.62 185.633 522.521L185.81 521.841C193.482 492.984 195.304 486.13 196.978 476.938C204.696 434.628 194.547 389.37 169.965 355.874C169.929 355.834 169.901 355.787 169.883 355.735C169.866 355.684 169.86 355.629 169.865 355.575C169.87 355.521 169.887 355.469 169.913 355.422C169.94 355.375 169.976 355.334 170.02 355.301C170.064 355.269 170.114 355.247 170.167 355.235C170.22 355.223 170.274 355.223 170.328 355.234C170.381 355.245 170.431 355.267 170.475 355.299C170.519 355.331 170.556 355.371 170.583 355.418C195.335 389.076 205.499 434.559 197.773 477.077C196.099 486.339 194.277 493.161 186.598 522.034L186.42 522.721C186.395 522.81 186.339 522.886 186.263 522.937C186.187 522.988 186.095 523.01 186.003 522.999Z" fill="#F2F2F2"/>
<path d="M197.495 522.999H197.387C197.338 522.985 197.292 522.961 197.252 522.929C197.211 522.897 197.178 522.857 197.154 522.811C197.129 522.766 197.114 522.716 197.109 522.665C197.104 522.614 197.11 522.562 197.125 522.513C211.017 476.869 222.054 416.938 184.004 358.22C183.949 358.134 183.93 358.029 183.952 357.93C183.974 357.83 184.034 357.743 184.12 357.687C184.162 357.659 184.21 357.639 184.26 357.63C184.31 357.62 184.361 357.621 184.411 357.632C184.461 357.643 184.508 357.663 184.549 357.693C184.591 357.722 184.626 357.76 184.653 357.803C222.872 416.784 211.781 476.93 197.858 522.744C197.831 522.819 197.782 522.883 197.717 522.929C197.652 522.975 197.575 522.999 197.495 522.999Z" fill="#F2F2F2"/>
<path d="M212.484 523.038C212.443 523.045 212.401 523.045 212.36 523.038C212.264 523.003 212.185 522.931 212.141 522.839C212.096 522.747 212.089 522.641 212.121 522.544C227.874 477.255 237.675 434.273 197.92 366.687C197.868 366.598 197.853 366.493 197.878 366.394C197.902 366.294 197.964 366.208 198.051 366.154C198.141 366.103 198.246 366.089 198.346 366.115C198.445 366.141 198.531 366.205 198.584 366.293C216.891 397.412 226.021 426.022 226.515 453.761C226.978 479.879 219.708 503.094 212.854 522.798C212.824 522.871 212.772 522.932 212.706 522.975C212.64 523.017 212.562 523.039 212.484 523.038Z" fill="#F2F2F2"/>
<path d="M225.21 523.038C225.172 523.045 225.133 523.045 225.095 523.038C225.046 523.023 225.001 522.998 224.962 522.966C224.923 522.933 224.891 522.893 224.868 522.847C224.845 522.802 224.831 522.752 224.828 522.701C224.824 522.65 224.831 522.6 224.848 522.551C244.976 458.762 253.312 432.359 209.79 373C209.76 372.959 209.739 372.912 209.727 372.863C209.715 372.814 209.713 372.762 209.721 372.712C209.736 372.611 209.792 372.52 209.875 372.46C209.958 372.399 210.061 372.374 210.163 372.39C210.264 372.406 210.355 372.462 210.415 372.544C231.678 401.549 240.778 422.495 241.835 444.862C242.846 466.295 236.371 488.6 225.581 522.814C225.55 522.885 225.497 522.944 225.431 522.984C225.365 523.024 225.288 523.043 225.21 523.038Z" fill="#F2F2F2"/>
<path d="M247.415 523.053C247.372 523.061 247.328 523.061 247.284 523.053C247.189 523.015 247.111 522.942 247.068 522.848C247.025 522.755 247.02 522.649 247.053 522.551C269.01 463.339 264.951 455.798 226.137 383.666L223.822 379.305C223.797 379.261 223.782 379.213 223.777 379.163C223.771 379.113 223.776 379.063 223.79 379.015C223.805 378.966 223.828 378.922 223.86 378.883C223.892 378.844 223.931 378.812 223.976 378.788C224.02 378.764 224.069 378.748 224.12 378.743C224.17 378.738 224.222 378.742 224.27 378.756C224.319 378.771 224.365 378.795 224.404 378.827C224.444 378.859 224.476 378.898 224.501 378.943L226.816 383.303C265.784 455.714 269.859 463.277 247.778 522.822C247.746 522.891 247.695 522.949 247.63 522.99C247.566 523.031 247.492 523.053 247.415 523.053Z" fill="#F2F2F2"/>
<path d="M256.762 523.053H256.654C256.556 523.024 256.473 522.958 256.423 522.868C256.374 522.778 256.363 522.673 256.391 522.575C257.858 517.789 259.517 512.966 261.122 508.304C266.579 492.444 272.213 476.051 270.924 459.256C268.964 433.787 246.227 398.57 236.525 384.615C236.466 384.531 236.442 384.427 236.46 384.326C236.477 384.225 236.534 384.135 236.618 384.075C236.702 384.016 236.806 383.992 236.907 384.01C237.009 384.027 237.099 384.084 237.158 384.168C246.883 398.184 269.72 433.563 271.688 459.202C272.993 476.143 267.328 492.621 261.856 508.551C260.25 513.182 258.591 518.029 257.132 522.798C257.105 522.874 257.054 522.94 256.988 522.985C256.922 523.031 256.842 523.055 256.762 523.053Z" fill="#F2F2F2"/>
<path d="M260.243 523.053C260.186 523.055 260.13 523.042 260.081 523.014C259.989 522.971 259.918 522.893 259.884 522.798C259.849 522.702 259.853 522.597 259.896 522.505C260.768 520.707 261.648 518.924 262.535 517.102C266.464 509.176 270.523 500.987 272.568 492.799C283.474 448.999 276.427 423.414 243.649 387.51C243.607 387.474 243.572 387.431 243.548 387.381C243.524 387.332 243.511 387.277 243.51 387.222C243.509 387.167 243.519 387.113 243.54 387.062C243.562 387.011 243.594 386.966 243.635 386.928C243.675 386.891 243.723 386.863 243.776 386.846C243.828 386.829 243.883 386.823 243.938 386.829C243.993 386.835 244.046 386.853 244.093 386.881C244.14 386.909 244.181 386.947 244.213 386.993C277.23 423.128 284.3 448.883 273.317 492.984C271.256 501.25 267.143 509.485 263.23 517.442C262.342 519.233 261.455 521.016 260.59 522.845C260.559 522.909 260.509 522.964 260.448 523.001C260.386 523.038 260.315 523.056 260.243 523.053Z" fill="#F2F2F2"/>
</g>
<path d="M338 350V15H13L13 339.042" stroke="white"/>
<defs>
<clipPath id="clip0_1600_2276">
<rect width="352" height="171" fill="white" transform="translate(0 239)"/>
</clipPath>
</defs>
</svg>
