<svg width="20" height="20" viewBox="0 0 20 20" fill="none" xmlns="http://www.w3.org/2000/svg">
<path d="M3.6204 0.573415C3.72961 0.567147 3.8391 0.567859 3.94822 0.575549C3.94823 0.57555 3.94824 0.57555 3.94825 0.575551L3.94342 0.644077L3.6204 0.573415ZM3.6204 0.573415C3.26968 0.550148 2.9179 0.598833 2.58666 0.716497C2.25404 0.834649 1.94923 1.01983 1.6911 1.26058C1.43297 1.50133 1.22703 1.79252 1.08602 2.1161C0.945035 2.43962 0.871967 2.78863 0.871333 3.14152M3.6204 0.573415L3.56989 5.70927M3.56989 5.70927C3.22177 5.72947 2.87319 5.67807 2.5457 5.55825C2.21757 5.4382 1.9176 5.25202 1.66439 5.01126C1.41118 4.7705 1.21014 4.48028 1.07372 4.15861C0.937325 3.83702 0.868441 3.49083 0.871333 3.14152M3.56989 5.70927H3.59114H3.56989ZM0.871333 3.14152C0.871333 3.14145 0.871334 3.14137 0.871335 3.14129L0.940028 3.14187L0.871332 3.14175C0.871332 3.14167 0.871333 3.1416 0.871333 3.14152ZM1.40204 18.8756L1.45062 18.8271L1.40205 18.8757C1.50082 18.9744 1.63478 19.0299 1.77446 19.0299H5.43825C5.57793 19.0299 5.71189 18.9744 5.81066 18.8757C5.90943 18.7769 5.96492 18.6429 5.96492 18.5032V7.51186C5.96492 7.37218 5.90943 7.23821 5.81066 7.13944C5.71189 7.04067 5.57793 6.98519 5.43825 6.98519H1.77446C1.63478 6.98519 1.50082 7.04067 1.40205 7.13944C1.30328 7.23821 1.24779 7.37218 1.24779 7.51186V18.5032C1.24779 18.6429 1.30328 18.7769 1.40204 18.8756ZM15.0558 6.98519H15.0557C14.0928 6.98519 13.1553 7.2884 12.3766 7.85041V7.51186C12.3766 7.37218 12.3211 7.23821 12.2223 7.13944C12.1235 7.04067 11.9896 6.98519 11.8499 6.98519H8.18609C8.04641 6.98519 7.91245 7.04067 7.81368 7.13944C7.71491 7.23821 7.65942 7.37218 7.65942 7.51186V18.5032C7.65942 18.6429 7.71491 18.7769 7.81368 18.8756C7.91245 18.9744 8.04641 19.0299 8.18609 19.0299H11.8499C11.9896 19.0299 12.1235 18.9744 12.2223 18.8757C12.3211 18.7769 12.3766 18.6429 12.3766 18.5032V13.4655C12.3766 13.1194 12.5141 12.7874 12.7589 12.5426C13.0036 12.2978 13.3356 12.1603 13.6818 12.1603C14.028 12.1603 14.3599 12.2978 14.6047 12.5426C14.8495 12.7874 14.987 13.1194 14.987 13.4655V18.5032C14.987 18.6429 15.0425 18.7769 15.1413 18.8756C15.24 18.9744 15.374 19.0299 15.5137 19.0299H19.1775C19.3172 19.0299 19.4511 18.9744 19.5499 18.8757C19.6487 18.7769 19.7041 18.6429 19.7041 18.5032V11.6336V11.6335C19.7027 10.4012 19.2125 9.21971 18.341 8.34829C17.4696 7.47687 16.2882 6.98666 15.0558 6.98519ZM18.6508 11.6336V17.9766H16.0404V13.4655C16.0404 12.84 15.7919 12.2401 15.3495 11.7978C14.9072 11.3554 14.3073 11.107 13.6818 11.107C13.0563 11.107 12.4563 11.3554 12.014 11.7978C11.5717 12.2401 11.3232 12.84 11.3232 13.4655V17.9766H8.71277V8.03853H11.3232V9.07172C11.3232 9.18078 11.357 9.28718 11.4201 9.3762C11.4831 9.46522 11.5723 9.53247 11.6752 9.56866C11.7781 9.60485 11.8897 9.60819 11.9945 9.57823C12.0994 9.54827 12.1924 9.48648 12.2607 9.4014L12.261 9.40096C12.7225 8.81597 13.3551 8.38958 14.0705 8.18125C14.7859 7.97293 15.5485 7.99304 16.2519 8.23879C16.9553 8.48455 17.5645 8.94368 17.9946 9.55219C18.4246 10.1607 18.654 10.8882 18.6508 11.6333V11.6336ZM3.60118 4.65636L3.60123 4.65593H3.59353H3.56788V4.65574L3.56273 4.65612C3.35182 4.67198 3.13991 4.64368 2.94054 4.57303C2.74117 4.50239 2.55873 4.39095 2.40485 4.24583C2.25097 4.1007 2.12905 3.92509 2.04686 3.7302C1.96467 3.53531 1.92402 3.32542 1.9275 3.11393C1.93099 2.90245 1.97854 2.69401 2.06711 2.50194C2.15568 2.30986 2.28333 2.13836 2.44191 1.99839C2.60048 1.85842 2.7865 1.75306 2.98809 1.68902C3.18968 1.62499 3.40241 1.60369 3.61269 1.62649L3.61254 1.62787L3.62638 1.6266C4.0285 1.58964 4.42882 1.71394 4.7393 1.97215C5.04977 2.23035 5.24495 2.60132 5.28191 3.00344C5.31887 3.40555 5.19457 3.80588 4.93637 4.11635C4.67819 4.42678 4.3073 4.62196 3.90524 4.65895C3.80393 4.66775 3.70233 4.66769 3.60118 4.65636ZM4.91158 17.9766H2.30113V8.03853H4.91158V17.9766Z" fill="#213253" stroke="#213253" stroke-width="0.137392"/>
</svg>
